<svg width="15" height="16" viewBox="0 0 15 16" fill="none" xmlns="http://www.w3.org/2000/svg">
<path d="M7.64646 14.8769C7.54004 14.7704 7.48587 14.6525 7.48396 14.523C7.48204 14.3935 7.53428 14.2756 7.64068 14.1692L13.3099 8.49993H1.26953C1.12723 8.49993 1.00832 8.45217 0.912806 8.35665C0.81729 8.26115 0.769531 8.14225 0.769531 7.99993C0.769531 7.85761 0.81729 7.7387 0.912806 7.6432C1.00832 7.54769 1.12723 7.49993 1.26953 7.49993H13.3099L7.64068 1.8307C7.53428 1.72429 7.48204 1.60634 7.48396 1.47685C7.48587 1.34737 7.54004 1.22942 7.64646 1.123C7.75287 1.01659 7.87082 0.963379 8.00031 0.963379C8.12979 0.963379 8.24774 1.01659 8.35416 1.123L14.6657 7.43455C14.7529 7.51789 14.8141 7.60603 14.8494 7.69898C14.8846 7.79191 14.9022 7.89223 14.9022 7.99993C14.9022 8.0948 14.8846 8.19095 14.8494 8.28838C14.8141 8.38583 14.7529 8.47814 14.6657 8.5653L8.35416 14.8769C8.24774 14.9833 8.12979 15.0365 8.00031 15.0365C7.87082 15.0365 7.75287 14.9833 7.64646 14.8769Z" fill="#1C1B1F"/>
</svg>
