<svg width="30" height="30" viewBox="0 0 30 30" fill="none" xmlns="http://www.w3.org/2000/svg">
<mask id="mask0_508_15143" style="mask-type:alpha" maskUnits="userSpaceOnUse" x="0" y="0" width="30" height="30">
<rect width="29.1837" height="29.1837" transform="matrix(-1 0 0 1 29.4062 0.34668)" fill="#E8D4C8"/>
</mask>
<g mask="url(#mask0_508_15143)">
<path d="M20.5126 25.805C20.7542 25.5633 20.875 25.2757 20.875 24.9421C20.875 24.6085 20.7542 24.3209 20.5126 24.0792L11.3716 14.9383L20.543 5.76691C20.7721 5.53776 20.8867 5.25715 20.8867 4.92508C20.8867 4.59304 20.762 4.3023 20.5126 4.05288C20.2709 3.81125 19.9833 3.69043 19.6497 3.69043C19.3161 3.69043 19.0285 3.81125 18.7868 4.05288L8.68946 14.1689C8.57567 14.2827 8.49538 14.4028 8.44861 14.5291C8.40185 14.6553 8.37848 14.7917 8.37848 14.9383C8.37848 15.0848 8.40185 15.2212 8.44861 15.3475C8.49538 15.4738 8.57567 15.5938 8.68946 15.7076L18.8172 25.8354C19.0464 26.0645 19.3239 26.1791 19.6497 26.1791C19.9755 26.1791 20.2631 26.0544 20.5126 25.805Z" fill="#E8D4C8"/>
</g>
</svg>
