<svg width="16" height="16" viewBox="0 0 16 16" fill="none" xmlns="http://www.w3.org/2000/svg">
<path d="M14.1931 15.0353C12.5724 15.0353 10.9675 14.6507 9.37826 13.8814C7.78907 13.1122 6.37027 12.1034 5.12189 10.855C3.87348 9.60661 2.86334 8.18915 2.09145 6.60262C1.31955 5.0161 0.933594 3.41247 0.933594 1.79175C0.933594 1.54175 1.01693 1.33341 1.18359 1.16675C1.35026 1.00008 1.55859 0.916748 1.80859 0.916748H4.52649C4.74231 0.916748 4.93062 0.983255 5.09141 1.11627C5.25218 1.24928 5.35181 1.42103 5.39028 1.6315L5.86784 4.08339C5.90096 4.28852 5.89748 4.47495 5.85743 4.64269C5.81736 4.81042 5.72948 4.95679 5.5938 5.08179L3.68995 6.95519C4.34807 8.07271 5.13066 9.08233 6.03772 9.98404C6.94478 10.8857 7.97416 11.6721 9.12589 12.343L10.9881 10.4488C11.1237 10.3131 11.2843 10.2167 11.4696 10.1595C11.655 10.1024 11.8449 10.0904 12.0393 10.1235L14.3534 10.5946C14.5639 10.6416 14.7356 10.7434 14.8686 10.8999C15.0016 11.0564 15.0681 11.2426 15.0681 11.4584V14.1603C15.0681 14.4103 14.9848 14.6186 14.8181 14.7853C14.6515 14.952 14.4431 15.0353 14.1931 15.0353Z" fill="white"/>
</svg>
