<svg width="18" height="18" viewBox="0 0 18 18" fill="none" xmlns="http://www.w3.org/2000/svg">
<path d="M16.486 17.5103C14.5469 17.5103 12.6206 17.0462 10.707 16.1182C8.79267 15.1908 7.08331 13.9749 5.57889 12.4704C4.07446 10.966 2.85855 9.26099 1.93116 7.35539C1.00309 5.44978 0.539062 3.5191 0.539062 1.56335C0.539062 1.26247 0.639357 1.01173 0.839947 0.811139C1.04054 0.610549 1.29127 0.510254 1.59216 0.510254H4.85175C5.1192 0.510254 5.34888 0.589487 5.54077 0.747953C5.73334 0.907088 5.8547 1.11202 5.90484 1.36276L6.48154 4.32146C6.51497 4.5722 6.50661 4.79786 6.45647 4.99846C6.40632 5.19904 6.29767 5.37456 6.13051 5.525L3.8488 7.78164C4.63444 9.11891 5.57454 10.3308 6.66909 11.4173C7.76431 12.5039 9.00563 13.4483 10.393 14.2507L12.6246 11.994C12.7918 11.8269 12.9883 11.7099 13.2143 11.643C13.4397 11.5761 13.6693 11.5594 13.9034 11.5929L16.6866 12.1695C16.9373 12.2197 17.1422 12.3367 17.3014 12.5206C17.4598 12.7045 17.5391 12.9301 17.5391 13.1976V16.4572C17.5391 16.758 17.4388 17.0088 17.2382 17.2094C17.0376 17.41 16.7869 17.5103 16.486 17.5103Z" fill="#1C1B1F"/>
</svg>
