<svg width="20" height="20" viewBox="0 0 20 20" fill="none" xmlns="http://www.w3.org/2000/svg">
<mask id="mask0_508_15123" style="mask-type:alpha" maskUnits="userSpaceOnUse" x="0" y="0" width="20" height="20">
<rect width="20" height="20" fill="#D9D9D9"/>
</mask>
<g mask="url(#mask0_508_15123)">
<path d="M8.83464 11.5003L7.02214 9.68783C6.86936 9.53505 6.68186 9.45866 6.45964 9.45866C6.23741 9.45866 6.04297 9.54199 5.8763 9.70866C5.72352 9.86144 5.64714 10.0559 5.64714 10.292C5.64714 10.5281 5.72352 10.7225 5.8763 10.8753L8.2513 13.2503C8.40408 13.4031 8.59852 13.4795 8.83464 13.4795C9.07075 13.4795 9.26519 13.4031 9.41797 13.2503L14.1471 8.52116C14.2999 8.36838 14.3763 8.18088 14.3763 7.95866C14.3763 7.73644 14.293 7.54199 14.1263 7.37533C13.9735 7.22255 13.7791 7.14616 13.543 7.14616C13.3069 7.14616 13.1124 7.22255 12.9596 7.37533L8.83464 11.5003ZM10.0013 18.3337C8.84852 18.3337 7.76519 18.1149 6.7513 17.6774C5.73741 17.2399 4.85547 16.6462 4.10547 15.8962C3.35547 15.1462 2.76172 14.2642 2.32422 13.2503C1.88672 12.2364 1.66797 11.1531 1.66797 10.0003C1.66797 8.84755 1.88672 7.76421 2.32422 6.75033C2.76172 5.73644 3.35547 4.85449 4.10547 4.10449C4.85547 3.35449 5.73741 2.76074 6.7513 2.32324C7.76519 1.88574 8.84852 1.66699 10.0013 1.66699C11.1541 1.66699 12.2374 1.88574 13.2513 2.32324C14.2652 2.76074 15.1471 3.35449 15.8971 4.10449C16.6471 4.85449 17.2409 5.73644 17.6784 6.75033C18.1159 7.76421 18.3346 8.84755 18.3346 10.0003C18.3346 11.1531 18.1159 12.2364 17.6784 13.2503C17.2409 14.2642 16.6471 15.1462 15.8971 15.8962C15.1471 16.6462 14.2652 17.2399 13.2513 17.6774C12.2374 18.1149 11.1541 18.3337 10.0013 18.3337Z" fill="#977058"/>
</g>
</svg>
