<svg width="27" height="27" viewBox="0 0 27 27" fill="none" xmlns="http://www.w3.org/2000/svg">
<path d="M13.4995 26.1874C11.1432 26.1874 9.005 25.6042 7.08482 24.4377C5.16466 23.2711 3.65851 21.708 2.56638 19.7484V23.3524H0.753906V16.7067H7.39971V18.5191H3.96753C4.84126 20.279 6.13247 21.6949 7.84117 22.767C9.5499 23.839 11.436 24.375 13.4995 24.375C14.9789 24.375 16.3665 24.1015 17.6624 23.5547C18.9583 23.0079 20.0926 22.2616 21.0655 21.3158C22.0383 20.3701 22.8195 19.2531 23.4089 17.965C23.9984 16.6769 24.3164 15.2893 24.3628 13.8021H26.1753C26.1366 15.5185 25.7776 17.1281 25.0983 18.6307C24.419 20.1334 23.5081 21.4463 22.3656 22.5694C21.2231 23.6925 19.8908 24.5763 18.3688 25.2208C16.8468 25.8652 15.2237 26.1874 13.4995 26.1874ZM12.6444 21.7259V20.2016C11.7598 19.9955 11.0243 19.6284 10.438 19.1001C9.85164 18.5719 9.402 17.8593 9.08908 16.9623L10.618 16.3396C10.9062 17.1266 11.3187 17.7245 11.8554 18.1335C12.3922 18.5425 13.0006 18.7469 13.6807 18.7469C14.3685 18.7469 14.9859 18.5754 15.5327 18.2322C16.0796 17.8891 16.353 17.3388 16.353 16.5812C16.353 15.9507 16.1179 15.4484 15.6478 15.0743C15.1776 14.7002 14.3004 14.2776 13.0162 13.8067C11.7737 13.3605 10.8776 12.8609 10.3276 12.3079C9.77767 11.7549 9.50269 11.0244 9.50269 10.1166C9.50269 9.33742 9.78386 8.62404 10.3462 7.9765C10.9085 7.32895 11.6947 6.9161 12.7048 6.73796V5.27403H14.3546V6.73796C15.0331 6.79064 15.6578 7.04586 16.2286 7.50362C16.7995 7.96139 17.2112 8.51173 17.4637 9.15462L15.9719 9.75411C15.7643 9.30642 15.4677 8.93424 15.0819 8.63758C14.6962 8.34091 14.1888 8.19258 13.5599 8.19258C12.8085 8.19258 12.2195 8.37074 11.7927 8.72705C11.3659 9.08335 11.1525 9.54655 11.1525 10.1166C11.1525 10.6867 11.3608 11.1306 11.7776 11.4481C12.1943 11.7657 13.0378 12.1414 14.3081 12.5751C15.7581 13.0988 16.7325 13.6859 17.2313 14.3365C17.7302 14.9872 17.9796 15.7354 17.9796 16.5812C17.9796 17.1575 17.8731 17.6633 17.6601 18.0986C17.4471 18.5339 17.1686 18.8999 16.8247 19.1966C16.4808 19.4932 16.0892 19.7275 15.6501 19.8995C15.2109 20.0714 14.7589 20.1923 14.2942 20.262V21.7259H12.6444ZM0.823627 13.1979C0.877861 11.4427 1.2485 9.81184 1.93554 8.30528C2.62257 6.79876 3.54121 5.4878 4.69144 4.37243C5.84169 3.25706 7.17202 2.38489 8.68242 1.75594C10.1928 1.12698 11.7985 0.8125 13.4995 0.8125C15.8325 0.8125 17.9707 1.3977 19.9141 2.56809C21.8575 3.73848 23.3637 5.31514 24.4326 7.29808V3.64749H26.245V10.2933H19.5992V8.48083H23.0314C22.1809 6.75194 20.8994 5.34375 19.1868 4.25625C17.4742 3.16873 15.5784 2.62497 13.4995 2.62497C12.051 2.62497 10.6808 2.89452 9.38881 3.43362C8.09684 3.97271 6.96054 4.71127 5.97992 5.64928C4.99931 6.58729 4.20848 7.70034 3.60742 8.98845C3.00635 10.2766 2.68258 11.6797 2.6361 13.1979H0.823627Z" fill="#1C1B1F"/>
</svg>
