<svg width="20" height="20" viewBox="0 0 20 20" fill="none" xmlns="http://www.w3.org/2000/svg">
<circle cx="10" cy="10" r="9.5" stroke="#977058"/>
<g clip-path="url(#clip0_508_14645)">
<path d="M18 10C18 9.64439 12.667 9.64439 12.667 9.64439H10.8584L11.5085 8.99434C11.5085 8.99434 14.0227 6.48018 13.7712 6.22877C13.5198 5.97735 11.0057 8.49151 11.0057 8.49151L10.3556 9.14156V7.33296C10.3556 7.33296 10.3556 2 10 2C9.64439 2 9.64439 7.33296 9.64439 7.33296V9.14156L8.99434 8.49151C8.99434 8.49151 6.48018 5.97735 6.22877 6.22877C5.97735 6.48018 8.49151 8.99434 8.49151 8.99434L9.14156 9.64439H7.33296C7.33296 9.64439 2 9.64439 2 10C2 10.3556 7.33296 10.3556 7.33296 10.3556H9.14156L8.49151 11.0057C8.49151 11.0057 5.97735 13.5198 6.22877 13.7712C6.48018 14.0227 8.99434 11.5085 8.99434 11.5085L9.64439 10.8584V12.667C9.64439 12.667 9.64439 18 10 18C10.3556 18 10.3556 12.667 10.3556 12.667V10.8584L11.0057 11.5085C11.0057 11.5085 13.5198 14.0227 13.7712 13.7712C14.0227 13.5198 11.5085 11.0057 11.5085 11.0057L10.8584 10.3556H12.667C12.667 10.3556 18 10.3556 18 10Z" fill="#977058"/>
</g>
<defs>
<clipPath id="clip0_508_14645">
<rect width="16" height="16" fill="white" transform="translate(2 2)"/>
</clipPath>
</defs>
</svg>
