<svg width="13" height="8" viewBox="0 0 13 8" fill="none" xmlns="http://www.w3.org/2000/svg">
<path d="M6.49705 7.27273C6.37819 7.27273 6.26301 7.2527 6.1515 7.21263C6.03999 7.17256 5.93549 7.10378 5.83801 7.0063L1.14048 2.3088C0.98958 2.1579 0.916802 1.97761 0.922149 1.76794C0.927479 1.55827 1.0056 1.37798 1.15652 1.22708C1.30743 1.07618 1.49038 1.00072 1.70538 1.00072C1.92038 1.00072 2.10333 1.07618 2.25423 1.22708L6.49705 5.46989L10.7559 1.21106C10.9068 1.06016 11.0871 0.987375 11.2967 0.992704C11.5064 0.998052 11.6867 1.07618 11.8376 1.22708C11.9885 1.37798 12.0639 1.56094 12.0639 1.77596C12.0639 1.99096 11.9885 2.17391 11.8376 2.32481L7.15608 7.0063C7.0586 7.10378 6.95577 7.17256 6.84759 7.21263C6.73943 7.2527 6.62258 7.27273 6.49705 7.27273Z" fill="#232323"/>
</svg>
