<svg width="13" height="8" viewBox="0 0 13 8" fill="none" xmlns="http://www.w3.org/2000/svg">
<path d="M6.49705 7.27249C6.37819 7.27249 6.26301 7.25245 6.1515 7.21238C6.03999 7.17231 5.93549 7.10354 5.83801 7.00605L1.14048 2.30855C0.98958 2.15765 0.916802 1.97736 0.922149 1.76769C0.927479 1.55802 1.0056 1.37774 1.15652 1.22684C1.30743 1.07593 1.49038 1.00048 1.70538 1.00048C1.92038 1.00048 2.10333 1.07593 2.25423 1.22684L6.49705 5.46965L10.7559 1.21082C10.9068 1.05992 11.0871 0.98713 11.2967 0.99246C11.5064 0.997807 11.6867 1.07593 11.8376 1.22684C11.9885 1.37774 12.0639 1.5607 12.0639 1.77572C12.0639 1.99072 11.9885 2.17367 11.8376 2.32457L7.15608 7.00605C7.0586 7.10354 6.95577 7.17231 6.84759 7.21238C6.73943 7.25245 6.62258 7.27249 6.49705 7.27249Z" fill="#232323"/>
</svg>
