<svg width="30" height="30" viewBox="0 0 30 30" fill="none" xmlns="http://www.w3.org/2000/svg">
<g clip-path="url(#clip0_508_15033)">
<path d="M21.0628 0H8.93716C4.00919 0 0 4.00919 0 8.93716V21.0628C0 25.9908 4.00919 30 8.93716 30H21.0628C25.9908 30 30 25.9908 30 21.0628V8.93716C29.9999 4.00919 25.9908 0 21.0628 0ZM26.982 21.0628C26.982 24.3319 24.3319 26.982 21.0628 26.982H8.93716C5.66813 26.982 3.018 24.3319 3.018 21.0628V8.93716C3.018 5.66807 5.66813 3.018 8.93716 3.018H21.0628C24.3319 3.018 26.982 5.66807 26.982 8.93716V21.0628Z" fill="#232323"/>
<path d="M15.0013 7.24023C10.7229 7.24023 7.24219 10.7209 7.24219 14.9992C7.24219 19.2775 10.7229 22.7583 15.0013 22.7583C19.2796 22.7583 22.7603 19.2776 22.7603 14.9992C22.7603 10.7209 19.2796 7.24023 15.0013 7.24023ZM15.0013 19.7404C12.3828 19.7404 10.2602 17.6177 10.2602 14.9993C10.2602 12.3809 12.3829 10.2582 15.0013 10.2582C17.6197 10.2582 19.7423 12.3809 19.7423 14.9993C19.7423 17.6177 17.6196 19.7404 15.0013 19.7404Z" fill="#232323"/>
<path d="M22.7732 9.15878C23.8 9.15878 24.6324 8.3264 24.6324 7.29961C24.6324 6.27281 23.8 5.44043 22.7732 5.44043C21.7464 5.44043 20.9141 6.27281 20.9141 7.29961C20.9141 8.3264 21.7464 9.15878 22.7732 9.15878Z" fill="#232323"/>
</g>
<defs>
<clipPath id="clip0_508_15033">
<rect width="30" height="30" fill="white"/>
</clipPath>
</defs>
</svg>
