<svg width="38" height="38" viewBox="0 0 38 38" fill="none" xmlns="http://www.w3.org/2000/svg">
<path d="M27.4563 8.64435C27.0805 8.64435 26.7132 8.75578 26.4007 8.96456C26.0883 9.17333 25.8447 9.47007 25.7009 9.81725C25.5571 10.1644 25.5195 10.5465 25.5928 10.915C25.6661 11.2836 25.8471 11.6221 26.1128 11.8879C26.3785 12.1536 26.7171 12.3345 27.0856 12.4078C27.4542 12.4812 27.8362 12.4435 28.1834 12.2997C28.5306 12.1559 28.8273 11.9124 29.0361 11.5999C29.2449 11.2875 29.3563 10.9201 29.3563 10.5443C29.3563 10.0404 29.1561 9.55717 28.7998 9.20085C28.4435 8.84453 27.9602 8.64435 27.4563 8.64435ZM34.7396 12.476C34.7088 11.1623 34.4628 9.86257 34.0113 8.62852C33.6087 7.57264 32.9821 6.61654 32.1746 5.82602C31.3906 5.01444 30.4323 4.3918 29.3721 4.00518C28.1413 3.53994 26.8401 3.28826 25.5246 3.26102C23.8463 3.16602 23.308 3.16602 19.0013 3.16602C14.6946 3.16602 14.1563 3.16602 12.478 3.26102C11.1625 3.28826 9.86126 3.53994 8.63047 4.00518C7.57229 4.39571 6.61478 5.01782 5.82797 5.82602C5.01639 6.61005 4.39375 7.56838 4.00714 8.62852C3.54189 9.85931 3.29022 11.1605 3.26297 12.476C3.16797 14.1543 3.16797 14.6927 3.16797 18.9993C3.16797 23.306 3.16797 23.8444 3.26297 25.5227C3.29022 26.8382 3.54189 28.1394 4.00714 29.3702C4.39375 30.4303 5.01639 31.3887 5.82797 32.1727C6.61478 32.9809 7.57229 33.603 8.63047 33.9935C9.86126 34.4588 11.1625 34.7104 12.478 34.7377C14.1563 34.8327 14.6946 34.8327 19.0013 34.8327C23.308 34.8327 23.8463 34.8327 25.5246 34.7377C26.8401 34.7104 28.1413 34.4588 29.3721 33.9935C30.4323 33.6069 31.3906 32.9843 32.1746 32.1727C32.9857 31.3851 33.6128 30.4282 34.0113 29.3702C34.4628 28.1361 34.7088 26.8364 34.7396 25.5227C34.7396 23.8444 34.8346 23.306 34.8346 18.9993C34.8346 14.6927 34.8346 14.1543 34.7396 12.476ZM31.8896 25.3327C31.8781 26.3377 31.6961 27.3335 31.3513 28.2777C31.0985 28.9667 30.6924 29.5894 30.1638 30.0985C29.6502 30.6218 29.0289 31.027 28.343 31.286C27.3988 31.6308 26.403 31.8128 25.398 31.8244C23.8146 31.9035 23.2288 31.9193 19.0646 31.9193C14.9005 31.9193 14.3146 31.9193 12.7313 31.8244C11.6877 31.8439 10.6486 31.6832 9.65964 31.3493C9.00379 31.0771 8.41095 30.6729 7.91797 30.1618C7.39244 29.6532 6.99147 29.0301 6.7463 28.341C6.35974 27.3833 6.14534 26.3649 6.11297 25.3327C6.11297 23.7493 6.01797 23.1635 6.01797 18.9993C6.01797 14.8352 6.01797 14.2493 6.11297 12.666C6.12007 11.6385 6.30764 10.6203 6.66714 9.65768C6.94588 8.98938 7.37372 8.39364 7.91797 7.91602C8.39901 7.37162 8.99351 6.93925 9.65964 6.64935C10.6248 6.30108 11.642 6.11906 12.668 6.11102C14.2513 6.11102 14.8371 6.01602 19.0013 6.01602C23.1655 6.01602 23.7513 6.01602 25.3346 6.11102C26.3397 6.12254 27.3355 6.30457 28.2796 6.64935C28.9992 6.91638 29.6449 7.35052 30.1638 7.91602C30.6827 8.40238 31.0881 8.99701 31.3513 9.65768C31.7032 10.6218 31.8853 11.6397 31.8896 12.666C31.9688 14.2493 31.9846 14.8352 31.9846 18.9993C31.9846 23.1635 31.9688 23.7493 31.8896 25.3327ZM19.0013 10.8768C17.3955 10.88 15.8267 11.359 14.493 12.2534C13.1594 13.1478 12.1207 14.4175 11.5084 15.902C10.896 17.3864 10.7374 19.0191 11.0526 20.5937C11.3678 22.1682 12.1427 23.614 13.2793 24.7484C14.4158 25.8828 15.8632 26.6548 17.4383 26.9669C19.0135 27.279 20.6459 27.1173 22.1291 26.502C23.6124 25.8868 24.88 24.8457 25.7718 23.5103C26.6637 22.1749 27.1396 20.6052 27.1396 18.9993C27.1417 17.9308 26.9325 16.8723 26.5241 15.8849C26.1157 14.8974 25.516 14.0005 24.7597 13.2456C24.0033 12.4907 23.1052 11.8928 22.117 11.4863C21.1287 11.0798 20.0699 10.8727 19.0013 10.8768ZM19.0013 24.2718C17.9585 24.2718 16.9391 23.9626 16.0721 23.3833C15.205 22.8039 14.5292 21.9805 14.1301 21.017C13.7311 20.0536 13.6267 18.9935 13.8301 17.9707C14.0336 16.948 14.5357 16.0085 15.2731 15.2711C16.0105 14.5338 16.9499 14.0316 17.9727 13.8282C18.9955 13.6247 20.0556 13.7291 21.019 14.1282C21.9824 14.5273 22.8059 15.203 23.3852 16.0701C23.9646 16.9372 24.2738 17.9565 24.2738 18.9993C24.2738 19.6917 24.1374 20.3774 23.8725 21.017C23.6075 21.6567 23.2191 22.238 22.7295 22.7276C22.2399 23.2172 21.6587 23.6055 21.019 23.8705C20.3793 24.1355 19.6937 24.2718 19.0013 24.2718Z" fill="white"/>
</svg>
