<svg width="25" height="25" viewBox="0 0 25 25" fill="none" xmlns="http://www.w3.org/2000/svg">
<mask id="mask0_512_19642" style="mask-type:alpha" maskUnits="userSpaceOnUse" x="0" y="0" width="25" height="25">
<rect width="24.0708" height="24.0708" fill="#D9D9D9"/>
</mask>
<g mask="url(#mask0_512_19642)">
<path d="M11.0299 20.5606H5.31312C4.81165 20.5606 4.38539 20.3851 4.03436 20.034C3.68333 19.683 3.50781 19.2567 3.50781 18.7553V5.31574C3.50781 4.81427 3.68333 4.38802 4.03436 4.03698C4.38539 3.68595 4.81165 3.51043 5.31312 3.51043H9.75118C9.8849 3.02568 10.1647 2.62015 10.5906 2.29386C11.0172 1.96823 11.498 1.80542 12.0329 1.80542C12.5845 1.80542 13.0736 1.96823 13.5002 2.29386C13.9261 2.62015 14.2059 3.02568 14.3397 3.51043H18.7527C19.2541 3.51043 19.6804 3.68595 20.0314 4.03698C20.3824 4.38802 20.558 4.81427 20.558 5.31574V10.0296H19.0535V5.31574C19.0535 5.24888 19.0201 5.18202 18.9532 5.11515C18.8864 5.04829 18.8195 5.01486 18.7527 5.01486H16.5462V5.81722C16.5462 6.31869 16.3706 6.74929 16.0196 7.10902C15.6686 7.46807 15.2423 7.6476 14.7409 7.6476H9.32492C8.82345 7.6476 8.39719 7.46807 8.04616 7.10902C7.69513 6.74929 7.51961 6.31869 7.51961 5.81722V5.01486H5.31312C5.24626 5.01486 5.1794 5.04829 5.11253 5.11515C5.04567 5.18202 5.01224 5.24888 5.01224 5.31574V18.7553C5.01224 18.8221 5.04567 18.889 5.11253 18.9559C5.1794 19.0227 5.24626 19.0562 5.31312 19.0562H11.0299V20.5606ZM15.5432 17.5016L20.7084 12.3615C20.8421 12.211 21.0136 12.1358 21.2229 12.1358C21.4315 12.1358 21.6111 12.211 21.7615 12.3615C21.9119 12.4952 21.9872 12.6664 21.9872 12.875C21.9872 13.0843 21.9119 13.2641 21.7615 13.4146L16.1701 18.9809C15.9862 19.1648 15.7772 19.2567 15.5432 19.2567C15.3092 19.2567 15.1002 19.1648 14.9164 18.9809L12.1583 16.2479C12.0245 16.0975 11.9537 15.9176 11.9456 15.7083C11.9369 15.4997 12.0078 15.3285 12.1583 15.1948C12.3087 15.0444 12.4842 14.9691 12.6848 14.9691C12.8854 14.9691 13.0609 15.0444 13.2114 15.1948L15.5432 17.5016ZM12.0329 5.14023C12.2836 5.14023 12.4966 5.0523 12.6718 4.87645C12.8476 4.70127 12.9355 4.47995 12.9355 4.2125C12.9355 3.96176 12.8476 3.74847 12.6718 3.57262C12.4966 3.39744 12.2836 3.30984 12.0329 3.30984C11.7821 3.30984 11.5692 3.39744 11.394 3.57262C11.2182 3.74847 11.1302 3.96176 11.1302 4.2125C11.1302 4.47995 11.2182 4.70127 11.394 4.87645C11.5692 5.0523 11.7821 5.14023 12.0329 5.14023Z" fill="#1C1B1F"/>
</g>
</svg>
