<svg width="30" height="48" viewBox="0 0 30 48" fill="none" xmlns="http://www.w3.org/2000/svg">
<g clip-path="url(#clip0_508_15244)">
<path d="M27.7306 12.1094C25.3354 12.0422 23.7562 14.8181 23.7562 16.9663V20.7149C23.6819 20.6959 23.8318 20.7327 23.7562 20.7149V5.24755C23.7562 3.63702 22.4604 2.33212 20.8611 2.33212C19.2618 2.33212 17.966 3.63702 17.966 5.24755V21.1689C17.9056 21.1689 18.0277 21.1689 17.966 21.1689L17.7822 3.29336C17.7822 1.68284 16.4864 0.37793 14.8871 0.37793C13.2878 0.37793 11.992 1.68284 11.992 3.29336L11.7326 21.1664C11.6457 21.1664 11.8182 21.1664 11.7326 21.1664V5.2653C11.7326 3.65478 10.4368 2.34987 8.83747 2.34987C7.23817 2.34987 5.94237 3.65478 5.94237 5.2653L5.71821 21.4289C5.64266 21.4403 5.79251 21.4162 5.71821 21.4289V11.6529C5.71821 10.055 4.65537 8.759 3.06867 8.759C1.64694 8.759 0.494689 9.91934 0.494689 11.3523C0.314611 19.2705 -0.473703 28.1094 1.32708 35.8589C2.96163 42.8945 7.54796 47.6234 14.8229 47.6234C18.3136 47.6234 21.8333 46.6888 24.3758 44.1703C26.6589 41.9079 27.8603 38.7896 28.5277 35.6916C29.282 32.1915 29.4268 28.5786 29.418 25.0088C29.4092 21.2754 29.2505 17.5408 29.1598 13.8074C29.1473 13.2951 29.1044 12.7156 28.7115 12.3909C28.5063 12.221 28.2355 12.1525 27.9711 12.1246C27.8905 12.1157 27.8111 12.1107 27.7331 12.1081L27.7306 12.1094Z" fill="#F7F5E8"/>
<path d="M15.03 48.0002C8.00189 48.0002 2.94963 43.6061 1.169 35.9441C-0.31066 29.5743 -0.0575436 22.5691 0.186758 15.796C0.242167 14.2552 0.295057 12.8007 0.327798 11.3449C0.327798 9.71534 1.65005 8.38381 3.27705 8.38381C4.29959 8.38381 5.17354 8.87838 5.71503 9.67096L5.77548 5.26167C5.77548 3.45078 7.24254 1.97341 9.04584 1.97341C10.217 1.97341 11.2458 2.59606 11.8238 3.53067L11.8276 3.28973C11.8276 1.47884 13.2947 0.00146484 15.098 0.00146484C16.9013 0.00146484 18.3683 1.47884 18.3683 3.2948V3.39879C18.959 2.52885 19.9513 1.95565 21.0733 1.95565C22.8766 1.95565 24.3437 3.43303 24.3437 5.24899V14.1386C24.6094 13.6504 24.9355 13.2052 25.3108 12.8387C26.0777 12.088 26.9882 11.7 27.9528 11.7329C28.0409 11.7355 28.1303 11.7405 28.2198 11.7507C28.6164 11.7925 28.9237 11.9067 29.1579 12.1007C29.6705 12.5243 29.7284 13.2002 29.7435 13.7987C29.7712 14.973 29.8065 16.1473 29.8417 17.3216C29.9173 19.8401 29.9953 22.4448 30.0016 25.0077C30.0092 28.2313 29.9085 32.0319 29.1025 35.7716C28.2827 39.5811 26.8899 42.4153 24.8474 44.4393C21.8767 47.3826 17.8697 48.0002 15.0312 48.0002H15.03ZM3.27705 9.13708C2.06436 9.13708 1.07707 10.1313 1.07707 11.3525C1.04433 12.8223 0.991443 14.2793 0.936034 15.8227C0.692992 22.5463 0.442393 29.4994 1.89939 35.7716C3.59313 43.0634 8.37968 47.2457 15.0312 47.2457C17.7299 47.2457 21.5317 46.6649 24.3223 43.9003C26.2578 41.9829 27.5813 39.2717 28.3709 35.6106C29.1617 31.9406 29.2612 28.192 29.2536 25.009C29.2473 22.455 29.1693 19.8566 29.0937 17.3431C29.0584 16.1676 29.0232 14.992 28.9942 13.8165C28.9841 13.384 28.9501 12.9034 28.6819 12.6828C28.5648 12.5864 28.3872 12.5268 28.1404 12.5002C28.0686 12.4925 27.9994 12.4875 27.9301 12.4862C26.9806 12.4672 26.2616 12.9567 25.8309 13.379C24.9393 14.2514 24.3411 15.6933 24.3411 16.9665V20.6086C24.3626 20.6707 24.3689 20.7392 24.3525 20.8064C24.3059 21.0055 24.0905 21.1247 23.8928 21.0841H23.8903C23.8903 21.0841 23.8802 21.0816 23.8752 21.0803C23.8752 21.0803 23.8677 21.0778 23.8651 21.0778H23.8639C23.6712 21.0207 23.5365 20.8166 23.5843 20.62C23.5868 20.6086 23.5906 20.5972 23.5944 20.5858V5.24645C23.5944 3.84644 22.4636 2.70765 21.0733 2.70765C19.683 2.70765 18.5522 3.84644 18.5522 5.24645V21.0575C18.5635 21.0917 18.5698 21.1285 18.5698 21.1666C18.5698 21.3669 18.3998 21.5305 18.2034 21.5445C18.1996 21.5445 18.1971 21.5445 18.1933 21.5445C18.1832 21.5445 18.1732 21.5445 18.1643 21.5445C17.9641 21.5369 17.7866 21.372 17.7866 21.1678C17.7866 21.1311 17.7916 21.0955 17.8029 21.0613L17.6203 3.29607C17.6203 1.89225 16.4895 0.753466 15.0992 0.753466C13.709 0.753466 12.5781 1.89225 12.5781 3.29226L12.32 21.0436C12.3351 21.0841 12.3439 21.126 12.3427 21.1704C12.3401 21.3631 12.1714 21.5204 11.9825 21.5394C11.9762 21.5394 11.9699 21.5394 11.9636 21.5407C11.9636 21.5407 11.951 21.5407 11.9447 21.5407H11.9384C11.6463 21.5369 11.543 21.3099 11.5443 21.1577C11.5443 21.1184 11.5531 21.0727 11.5695 21.0296V5.26547C11.5695 3.86546 10.4386 2.72668 9.04836 2.72668C7.65811 2.72668 6.52727 3.86546 6.52727 5.26547L6.30564 21.3061C6.31193 21.3238 6.31697 21.3416 6.31949 21.3606C6.35349 21.5597 6.20615 21.7524 6.01096 21.7968C6.01096 21.7968 5.99837 21.7994 5.99207 21.8006H5.98326C5.78051 21.8311 5.57021 21.6966 5.53747 21.4937C5.5274 21.4329 5.53495 21.3733 5.55384 21.3187V11.653C5.55384 10.1947 4.59678 9.13708 3.27957 9.13708H3.27705Z" fill="#B28E64"/>
<path d="M24.1812 37.0345C23.6346 30.832 18.9362 25.3854 15.2994 20.3433V20.2305C15.2856 20.2495 15.2717 20.2685 15.2579 20.2863C15.244 20.2672 15.2302 20.2482 15.2163 20.2305V20.3433C11.5795 25.3854 6.88108 30.832 6.33455 37.0345C6.11543 39.5263 6.75263 42.2262 8.47785 44.2298C9.38202 45.2798 10.5443 46.0851 11.9144 46.5835C15.4493 47.8706 19.6805 46.9639 22.0353 44.2298C23.7618 42.2262 24.399 39.5263 24.1786 37.0345H24.1812Z" fill="url(#paint0_linear_508_15244)"/>
<path d="M15.249 47.546C14.0892 47.546 12.9143 47.3494 11.7885 46.9398C10.3655 46.4211 9.15655 45.5943 8.19571 44.4784C6.52842 42.5419 5.71366 39.818 5.96174 37.0027C6.44153 31.5561 9.95494 26.8222 13.3525 22.2455C13.8701 21.548 14.3612 20.8873 14.8422 20.2216C14.846 20.0618 14.9505 19.921 15.1016 19.8728C15.1533 19.8564 15.2049 19.8513 15.2565 19.8576C15.3069 19.8513 15.3598 19.8576 15.4114 19.8728C15.5638 19.9223 15.6671 20.0618 15.6708 20.2216C16.1519 20.8861 16.643 21.5468 17.1606 22.2442C20.5581 26.8209 24.0715 31.5549 24.5526 37.0015C24.8007 39.8167 23.9859 42.5419 22.3186 44.4771C20.6135 46.4567 17.9741 47.5447 15.2477 47.5447L15.249 47.546ZM15.2578 20.9267C14.8296 21.5151 14.3851 22.1136 13.9532 22.6957C10.6186 27.1887 7.16939 31.8338 6.7085 37.0687C6.47805 39.681 7.22606 42.2021 8.76239 43.9838C9.6376 45.0008 10.742 45.7566 12.0441 46.2297C15.4744 47.4775 19.5583 46.534 21.7557 43.9838C23.2908 42.2021 24.0401 39.681 23.8096 37.0687C23.3475 31.8351 19.8995 27.1887 16.5649 22.6957C16.133 22.1136 15.6885 21.5151 15.2603 20.9267H15.2578Z" fill="#B28E64"/>
<path d="M16.0872 24.1729C16.703 25.4397 17.3175 26.7066 17.9321 27.9734C18.3854 28.9093 18.8287 29.849 19.2669 30.79C19.6825 31.6815 19.991 32.7289 20.6634 33.4923C21.3006 34.2164 22.2627 34.1898 22.1129 33.1614C21.8799 31.5686 20.5854 30.076 19.6472 28.7533C19.0893 27.9658 18.5025 27.1961 17.9031 26.4339C17.349 25.7288 16.4688 24.9604 16.0859 24.1729H16.0872Z" fill="#D9F0F9"/>
<path d="M22.1282 35.5112C22.1282 35.5112 22.3247 37.7863 22.1282 39.1102C21.9318 40.4341 23.0689 40.1982 23.1709 39.1102C23.2729 38.0221 22.1282 35.5112 22.1282 35.5112Z" fill="#D9F0F9"/>
<path d="M9.19141 42.8462C9.19141 42.8462 10.5905 45.8618 15.2561 46.0127C19.9205 46.1636 21.2692 42.8462 21.2692 42.8462C21.2692 42.8462 16.2333 47.3696 9.19141 42.8462Z" fill="#E9DA97"/>
</g>
<defs>
<linearGradient id="paint0_linear_508_15244" x1="8.88964" y1="44.6762" x2="21.8607" y2="28.3371" gradientUnits="userSpaceOnUse">
<stop stop-color="#E9DA97"/>
<stop offset="1" stop-color="#E9DA97"/>
</linearGradient>
<clipPath id="clip0_508_15244">
<rect width="30" height="48" fill="white"/>
</clipPath>
</defs>
</svg>
