<svg width="34" height="38" viewBox="0 0 34 38" fill="none" xmlns="http://www.w3.org/2000/svg">
<g clip-path="url(#clip0_508_15315)">
<path d="M4.06641 34.3915C4.06641 34.3915 9.92121 32.7963 14.8487 37.6633C14.8487 37.6633 13.952 34.5486 10.9957 34.1314C10.9957 34.1314 17.3578 32.7273 19.6539 36.4491C19.6539 36.4491 19.1603 33.5662 16.2787 32.725C16.2787 32.725 23.3281 35.5005 28.2227 28.7805C28.2227 28.7805 23.8444 31.7087 20.6367 30.7748C20.6367 30.7748 34.0504 26.4505 33.6552 14.5729C33.6552 14.5729 30.9559 21.4942 25.3661 22.9073C25.3661 22.9073 32.6317 17.5881 32.9668 12.2915C32.9668 12.2915 29.8011 18.3772 26.1813 19.8809C26.1813 19.8809 31.9885 13.9127 30.9163 8.78001C29.843 3.64731 27.3554 1.08888 25.3638 0.335938C25.3638 0.335938 26.6093 16.2348 18.8976 22.7287C10.8757 29.4837 4.06641 34.3915 4.06641 34.3915Z" fill="url(#paint0_linear_508_15315)"/>
<path d="M14.8502 38.0003C14.7642 38.0003 14.6781 37.9675 14.6136 37.9031C9.87857 33.226 4.21285 34.7003 4.15624 34.7161C3.99999 34.759 3.83468 34.6833 3.76335 34.5363C3.69315 34.3894 3.73844 34.2141 3.86978 34.1191C3.93771 34.0705 10.7606 29.1413 18.6806 22.4722C26.1715 16.166 25.0415 0.519244 25.0291 0.362097C25.02 0.247912 25.071 0.135988 25.1627 0.0670241C25.2544 -0.00193939 25.3767 -0.0188976 25.4842 0.0218021C26.4896 0.401666 29.875 2.15176 31.2473 8.7112C32.0025 12.3244 29.5456 16.252 27.8631 18.4271C30.5351 16.1977 32.6445 12.1854 32.6705 12.1368C32.7441 11.9954 32.906 11.9253 33.0589 11.9683C33.2117 12.0113 33.3148 12.1549 33.3046 12.3131C33.0646 16.1163 29.4606 19.8528 27.2539 21.7996C31.296 19.5826 33.3204 14.5098 33.3431 14.451C33.4008 14.3029 33.5559 14.2147 33.7133 14.2418C33.8707 14.269 33.9873 14.4024 33.993 14.5618C34.1583 19.5306 31.9142 23.968 27.503 27.3935C25.3812 29.0419 23.2605 30.0786 21.9743 30.6224C21.9879 30.6224 22.0015 30.6224 22.015 30.6224C24.8253 30.6224 28.0023 28.5252 28.0386 28.5003C28.1744 28.4099 28.3556 28.4291 28.4688 28.5467C28.582 28.6643 28.5945 28.8451 28.4982 28.9774C25.2204 33.4781 20.9541 33.8297 18.393 33.5335C19.6883 34.7364 19.9736 36.3011 19.9883 36.3916C20.0155 36.5498 19.9261 36.7058 19.7755 36.7624C19.6249 36.8189 19.455 36.7624 19.3701 36.6244C17.8778 34.2062 14.4698 34.0988 12.5167 34.2616C14.4913 35.2791 15.1423 37.4577 15.1741 37.5696C15.2159 37.7166 15.1537 37.8737 15.0223 37.9517C14.9691 37.9834 14.9102 37.9992 14.8502 37.9992V38.0003ZM6.36976 33.8173C8.28778 33.8173 11.0946 34.2559 13.7825 36.2932C13.23 35.5075 12.3287 34.6595 10.9497 34.4651C10.7889 34.4425 10.6666 34.3079 10.6609 34.1451C10.6542 33.9823 10.7662 33.8388 10.9248 33.8037C11.1535 33.7528 15.7798 32.7693 18.6319 34.8585C18.2085 34.2141 17.5404 33.538 16.5022 33.1525C16.287 33.0881 16.1659 33.0417 16.1568 33.0383C15.9893 32.9728 15.9032 32.7862 15.9621 32.6166C16.021 32.4471 16.201 32.3521 16.3754 32.403C16.5248 32.4459 16.6675 32.4946 16.8045 32.5477C18.1949 32.9683 22.8687 33.9688 26.7693 29.9893C25.1559 30.784 22.6423 31.7088 20.5454 31.0983C20.4039 31.0565 20.3054 30.9276 20.3031 30.7806C20.3008 30.6325 20.3959 30.5014 20.5363 30.4562C20.5692 30.446 23.8866 29.3573 27.1067 26.852C30.9212 23.8843 32.9966 20.288 33.2933 16.1423C32.1599 18.2949 29.5942 22.1862 25.4514 23.2331C25.294 23.2727 25.1332 23.1958 25.0642 23.0511C24.9951 22.9052 25.0392 22.7323 25.1695 22.6373C25.2317 22.5921 30.5385 18.6612 32.1724 14.3131C30.9224 16.2678 28.7383 19.1857 26.313 20.1919C26.1647 20.253 25.9949 20.2021 25.9054 20.071C25.816 19.9387 25.8307 19.7623 25.9428 19.6481C25.9994 19.5893 31.613 13.7467 30.5895 8.85026C29.6418 4.31902 27.546 1.81372 25.7367 0.871975C25.8862 3.80688 26.142 17.0727 19.1176 22.9878C13.0466 28.1001 7.61523 32.1938 5.3666 33.8591C5.66325 33.8342 6.00179 33.8184 6.37203 33.8184L6.36976 33.8173Z" fill="#B28E64"/>
<path d="M4.41994 34.1472C4.41994 34.1472 9.78902 28.4391 3.57416 22.8768C3.57416 22.8768 7.44075 25.1876 7.86195 27.4171C7.86195 27.4171 6.13755 20.74 9.61918 17.3518C9.61918 17.3518 7.99895 25.6986 10.9518 26.6426C10.9518 26.6426 9.82185 15.7747 12.2199 13.7838C12.2199 13.7838 10.4491 18.8882 13.3624 23.4952C13.3624 23.4952 12.9899 9.90713 16.7795 8.34584C16.7795 8.34584 14.5172 11.465 17.709 15.0963C17.709 15.0963 16.0877 11.2084 18.5129 5.28771C18.5129 5.28771 17.3739 11.6968 19.0349 13.9613C19.0349 13.9613 18.1619 8.12312 20.5374 4.17525C20.5374 4.17525 20.209 5.69923 21.5145 7.9151C21.5145 7.9151 20.7865 2.62301 25.3641 0.337036C25.3641 0.337036 27.9094 4.46128 25.7491 11.9647C23.3759 20.203 14.5003 31.2089 4.42107 34.1472H4.41994Z" fill="url(#paint1_linear_508_15315)"/>
<path d="M4.42023 34.4828C4.30588 34.4828 4.19605 34.424 4.13378 34.3223C4.05452 34.1934 4.0715 34.0272 4.17454 33.9164C4.19605 33.8927 6.36655 31.54 6.23182 28.4864C6.1469 26.5656 5.1777 24.7612 3.35027 23.1265C3.22119 23.0112 3.20081 22.8167 3.30385 22.6765C3.40688 22.5375 3.59823 22.499 3.74768 22.5872C3.86544 22.6573 5.89781 23.8851 7.18743 25.4464C6.9406 23.1412 7.00174 19.4284 9.38623 17.1097C9.49153 17.0068 9.65118 16.9842 9.78138 17.0543C9.91046 17.1244 9.97953 17.2702 9.95235 17.4138C9.55494 19.4646 8.9775 24.6369 10.5604 26.0354C10.3554 23.6307 9.82328 15.337 12.0074 13.5236C12.1229 13.4275 12.2893 13.4196 12.4138 13.5055C12.5384 13.5914 12.5893 13.7486 12.5407 13.891C12.5248 13.9362 11.1389 18.0752 13.0173 22.1497C13.0343 18.6156 13.3932 9.3756 16.6541 8.03251C16.7933 7.97485 16.953 8.01668 17.047 8.13539C17.1398 8.25297 17.1432 8.41916 17.0549 8.54013C16.9824 8.64188 15.5309 10.73 16.9643 13.4422C16.7141 11.7147 16.7028 8.82277 18.2041 5.1564C18.2698 4.99812 18.443 4.91333 18.6095 4.96081C18.7748 5.0083 18.8767 5.17336 18.8472 5.34181C18.8393 5.38703 18.2766 8.62153 18.5404 11.2241C18.5551 9.1461 18.8755 6.28582 20.2523 3.99758C20.3372 3.85627 20.5116 3.79748 20.6645 3.85853C20.8173 3.91845 20.9045 4.08125 20.8694 4.24178C20.8671 4.25083 20.7086 5.0863 21.1728 6.39774C21.3155 4.57529 22.0605 1.60874 25.2149 0.0327508C25.3712 -0.0452571 25.5603 0.00900924 25.652 0.157111C25.7595 0.331216 28.2505 4.49503 26.0732 12.055C23.6343 20.5217 14.6987 31.4982 4.51534 34.467C4.48364 34.476 4.45194 34.4806 4.42137 34.4806L4.42023 34.4828ZM5.7993 24.967C6.48204 26.0772 6.85228 27.2462 6.90437 28.4649C6.99947 30.6593 6.04386 32.4784 5.35093 33.497C14.8844 30.1822 23.118 19.8818 25.4255 11.8719C27.2054 5.69228 25.7165 1.82467 25.2229 0.791349C21.2419 3.00949 21.8216 7.66735 21.8488 7.86971C21.8703 8.02799 21.7763 8.18061 21.6257 8.23262C21.474 8.28462 21.3064 8.22357 21.2261 8.08565C20.6271 7.06928 20.3565 6.18746 20.2421 5.51365C18.6978 9.21054 19.3624 13.8605 19.3703 13.9125C19.393 14.0651 19.308 14.2144 19.1654 14.2731C19.0216 14.3319 18.8574 14.2856 18.7657 14.1612C17.8735 12.9447 17.7354 10.6701 17.8169 8.72102C17.0492 12.5558 18.0094 14.939 18.0218 14.9696C18.0852 15.1211 18.0286 15.2974 17.8893 15.3845C17.749 15.4715 17.5667 15.4444 17.458 15.3212C15.4313 13.016 15.5116 10.8725 15.8898 9.54179C13.888 12.3433 13.6129 20.2583 13.7012 23.4894C13.7057 23.6409 13.6072 23.7765 13.4623 23.8206C13.3174 23.8647 13.1611 23.8071 13.0796 23.6782C11.4639 21.1231 11.2374 18.4471 11.379 16.506C10.7925 19.5811 11.0642 24.4447 11.2895 26.6108C11.3008 26.7239 11.2556 26.8347 11.1672 26.9059C11.0789 26.9771 10.9612 26.9997 10.8525 26.9647C8.32872 26.1575 8.73859 20.9931 9.08845 18.5217C7.06741 21.5505 7.93357 26.1733 8.14756 27.1501C8.16568 27.2191 8.18266 27.288 8.19512 27.357C8.22909 27.5356 8.11473 27.7074 7.9381 27.747C7.76034 27.7866 7.58484 27.6781 7.53842 27.5028C7.53163 27.4779 7.51238 27.4011 7.48521 27.279C7.2531 26.4774 6.55564 25.6612 5.80157 24.9681L5.7993 24.967Z" fill="#B28E64"/>
<path d="M0.33628 35.7445C0.170974 35.7445 0.0271792 35.6224 0.00340216 35.4551C-0.0226393 35.2708 0.106436 35.1012 0.289859 35.0763C0.353264 35.0673 6.70399 34.1256 14.0737 28.3405C14.2198 28.2252 14.4315 28.2512 14.5459 28.3971C14.6614 28.5429 14.6353 28.7543 14.4893 28.8685C6.96667 34.7734 0.647646 35.7038 0.382702 35.7411C0.366851 35.7434 0.351 35.7445 0.33628 35.7445Z" fill="#B28E64"/>
</g>
<defs>
<linearGradient id="paint0_linear_508_15315" x1="4.06641" y1="19.0002" x2="33.6631" y2="19.0002" gradientUnits="userSpaceOnUse">
<stop stop-color="#E9DA97"/>
<stop offset="0.35" stop-color="#E9DA97"/>
<stop offset="0.73" stop-color="#E9DA97"/>
<stop offset="1" stop-color="#E9DA97"/>
</linearGradient>
<linearGradient id="paint1_linear_508_15315" x1="3.57529" y1="17.241" x2="26.6186" y2="17.241" gradientUnits="userSpaceOnUse">
<stop stop-color="#EFEBE8"/>
<stop offset="0.73" stop-color="#F1EFE8"/>
<stop offset="1" stop-color="#F3F3E9"/>
</linearGradient>
<clipPath id="clip0_508_15315">
<rect width="34" height="38" fill="white"/>
</clipPath>
</defs>
</svg>
