<svg width="45" height="30" viewBox="0 0 45 30" fill="none" xmlns="http://www.w3.org/2000/svg">
<g clip-path="url(#clip0_508_15258)">
<path d="M0.363464 12.34C0.363464 12.34 2.33878 29.6364 22.3908 29.6364C22.3908 29.6364 19.23 11.6051 0.363464 12.3388V12.34Z" fill="url(#paint0_linear_508_15258)"/>
<path d="M22.3908 30.0002C11.8749 30.0002 6.34575 25.2122 3.55851 21.1945C0.541037 16.8448 0.0230211 12.561 0.00220252 12.3803C-0.00881909 12.2802 0.0217965 12.1801 0.0879261 12.1032C0.154056 12.0263 0.248352 11.9811 0.349995 11.9775C10.2584 11.5954 15.8243 16.4017 18.7487 20.5035C21.9083 24.9351 22.7165 29.3873 22.7496 29.5753C22.7679 29.6815 22.7386 29.789 22.67 29.8708C22.6002 29.9526 22.4985 30.0002 22.3908 30.0002ZM0.785961 12.6892C0.986799 13.8392 1.76444 17.3453 4.17449 20.8075C8.01369 26.3219 13.9886 29.1688 21.9401 29.2714C21.6572 28.0518 20.6567 24.4248 18.1389 20.9015C14.1099 15.2639 8.27208 12.5061 0.785961 12.6892Z" fill="#B28E64"/>
<path d="M0.363464 12.34C0.363464 12.34 2.33878 29.6364 22.3908 29.6364C22.3908 29.6364 19.23 11.6051 0.363464 12.3388V12.34Z" fill="url(#paint1_linear_508_15258)"/>
<path d="M22.3908 30.0002C11.8749 30.0002 6.34575 25.2122 3.55851 21.1945C0.541037 16.8448 0.0230211 12.561 0.00220252 12.3803C-0.00881909 12.2802 0.0217965 12.1801 0.0879261 12.1032C0.154056 12.0263 0.248352 11.9811 0.349995 11.9775C10.2584 11.5954 15.8243 16.4017 18.7487 20.5035C21.9083 24.9351 22.7165 29.3873 22.7496 29.5753C22.7679 29.6815 22.7386 29.789 22.67 29.8708C22.6002 29.9526 22.4985 30.0002 22.3908 30.0002ZM0.785961 12.6892C0.986799 13.8392 1.76444 17.3453 4.17449 20.8075C8.01369 26.3219 13.9886 29.1688 21.9401 29.2714C21.6572 28.0518 20.6567 24.4248 18.1389 20.9015C14.1099 15.2639 8.27208 12.5061 0.785961 12.6892Z" fill="#B28E64"/>
<path d="M9.58049 3.69141C9.58049 3.69141 4.22277 20.1612 22.2517 29.476C22.2517 29.476 26.8465 11.7963 9.58049 3.69141Z" fill="#F1EFE9"/>
<path d="M22.251 29.8387C22.1934 29.8387 22.1358 29.8253 22.0832 29.7984C12.6377 24.9176 9.64347 18.0531 8.79603 13.1528C7.87756 7.8435 9.17811 3.75137 9.23322 3.57924C9.26506 3.48036 9.33854 3.39978 9.43528 3.35828C9.53203 3.31677 9.6398 3.31921 9.73532 3.36316C18.7939 7.61521 21.8113 14.5164 22.7482 19.5571C23.7609 25.0068 22.6514 29.3833 22.6037 29.5677C22.5755 29.6751 22.5008 29.763 22.3991 29.8082C22.3514 29.8289 22.3012 29.8399 22.251 29.8399V29.8387ZM9.81492 4.20551C9.51856 5.35673 8.78501 8.85311 9.51978 13.06C10.3329 17.7149 13.1643 24.2132 21.9987 28.9329C22.2497 27.6803 22.8339 23.9727 22.0281 19.6621C20.7288 12.7182 16.6214 7.51999 9.81492 4.20551Z" fill="#B28E64"/>
<path d="M44.6365 12.3397C44.6365 12.3397 42.6611 29.6372 22.6092 29.6372C22.6092 29.6372 25.7699 11.606 44.6365 12.3397Z" fill="url(#paint2_linear_508_15258)"/>
<path d="M22.6104 29.9998C22.5026 29.9998 22.401 29.9522 22.3312 29.8704C22.2614 29.7886 22.2332 29.68 22.2516 29.575C22.2846 29.3882 23.0917 24.936 26.2524 20.5032C29.1768 16.4013 34.7452 11.5889 44.6512 11.9771C44.7528 11.9808 44.8471 12.0272 44.9132 12.1029C44.9793 12.1798 45.01 12.2799 44.9989 12.38C44.9781 12.5607 44.4601 16.8445 41.4426 21.1942C38.6554 25.2106 33.1262 29.9998 22.6104 29.9998ZM43.5074 12.6803C36.3592 12.6803 30.7627 15.443 26.8611 20.9012C24.3432 24.4244 23.3427 28.0514 23.0598 29.271C31.0113 29.1685 36.9862 26.3216 40.8254 20.8072C43.2355 17.345 44.0131 13.8389 44.214 12.6889C43.9764 12.6828 43.7413 12.6803 43.5074 12.6803Z" fill="#B28E64"/>
<path d="M44.6365 12.3397C44.6365 12.3397 42.6611 29.6372 22.6092 29.6372C22.6092 29.6372 25.7699 11.606 44.6365 12.3397Z" fill="url(#paint3_linear_508_15258)"/>
<path d="M22.6104 29.9998C22.5026 29.9998 22.401 29.9522 22.3312 29.8704C22.2614 29.7886 22.2332 29.68 22.2516 29.575C22.2846 29.3882 23.0917 24.936 26.2524 20.5032C29.1768 16.4013 34.7452 11.5889 44.6512 11.9771C44.7528 11.9808 44.8471 12.0272 44.9132 12.1029C44.9793 12.1798 45.01 12.2799 44.9989 12.38C44.9781 12.5607 44.4601 16.8445 41.4426 21.1942C38.6554 25.2106 33.1262 29.9998 22.6104 29.9998ZM43.5074 12.6803C36.3592 12.6803 30.7627 15.443 26.8611 20.9012C24.3432 24.4244 23.3427 28.0514 23.0598 29.271C31.0113 29.1685 36.9862 26.3216 40.8254 20.8072C43.2355 17.345 44.0131 13.8389 44.214 12.6889C43.9764 12.6828 43.7413 12.6803 43.5074 12.6803Z" fill="#B28E64"/>
<path d="M35.417 3.69189C35.417 3.69189 40.7747 20.1617 22.7458 29.4765C22.7458 29.4765 18.151 11.7968 35.417 3.69189Z" fill="#F1EFE9"/>
<path d="M22.7463 29.8389C22.6961 29.8389 22.6459 29.828 22.5981 29.8072C22.4965 29.762 22.4218 29.6741 22.3936 29.5667C22.3458 29.3836 21.2363 25.0058 22.2491 19.5561C23.1859 14.5154 26.2034 7.61424 35.2619 3.36218C35.3562 3.31823 35.4652 3.31579 35.562 3.3573C35.6575 3.39881 35.731 3.47938 35.764 3.57827C35.8204 3.7504 37.1209 7.84253 36.2012 13.1518C35.3538 18.0521 32.3596 24.9179 22.9141 29.7974C22.8614 29.8243 22.8039 29.8377 22.7463 29.8377V29.8389ZM35.1836 4.20576C28.3685 7.5239 24.2587 12.7318 22.9655 19.6892C22.1658 23.9962 22.7487 27.6842 22.9998 28.9331C31.8342 24.2135 34.6656 17.7152 35.4787 13.0602C36.2135 8.85335 35.4812 5.35697 35.1836 4.20576Z" fill="#B28E64"/>
<path d="M0.363464 12.34C0.363464 12.34 2.33878 29.6364 22.3908 29.6364C22.3908 29.6364 19.23 11.6051 0.363464 12.3388V12.34Z" fill="#E9DA97"/>
<path d="M22.3908 30.0002C11.8749 30.0002 6.34575 25.2122 3.55851 21.1945C0.541037 16.8448 0.0230211 12.561 0.00220252 12.3803C-0.00881909 12.2802 0.0217965 12.1801 0.0879261 12.1032C0.154056 12.0263 0.248352 11.9811 0.349995 11.9775C10.2584 11.5954 15.8243 16.4017 18.7487 20.5035C21.9083 24.9351 22.7165 29.3873 22.7496 29.5753C22.7679 29.6815 22.7386 29.789 22.67 29.8708C22.6002 29.9526 22.4985 30.0002 22.3908 30.0002ZM0.785961 12.6892C0.986799 13.8392 1.76444 17.3453 4.17449 20.8075C8.01369 26.3219 13.9886 29.1688 21.9401 29.2714C21.6572 28.0518 20.6567 24.4248 18.1389 20.9015C14.1099 15.2639 8.27208 12.5061 0.785961 12.6892Z" fill="#B28E64"/>
<path d="M44.6365 12.3397C44.6365 12.3397 42.6611 29.6372 22.6092 29.6372C22.6092 29.6372 25.7699 11.606 44.6365 12.3397Z" fill="#E9DA97"/>
<path d="M22.6104 29.9998C22.5026 29.9998 22.401 29.9522 22.3312 29.8704C22.2614 29.7886 22.2332 29.68 22.2516 29.575C22.2846 29.3882 23.0917 24.936 26.2524 20.5032C29.1768 16.4013 34.7452 11.5889 44.6512 11.9771C44.7528 11.9808 44.8471 12.0272 44.9132 12.1029C44.9793 12.1798 45.01 12.2799 44.9989 12.38C44.9781 12.5607 44.4601 16.8445 41.4426 21.1942C38.6554 25.2106 33.1262 29.9998 22.6104 29.9998ZM43.5074 12.6803C36.3592 12.6803 30.7627 15.443 26.8611 20.9012C24.3432 24.4244 23.3427 28.0514 23.0598 29.271C31.0113 29.1685 36.9862 26.3216 40.8254 20.8072C43.2355 17.345 44.0131 13.8389 44.214 12.6889C43.9764 12.6828 43.7413 12.6803 43.5074 12.6803Z" fill="#B28E64"/>
<path d="M22.4039 0.362305C22.4039 0.362305 10.4993 12.3604 22.4578 29.443C22.4578 29.443 34.2105 15.9971 22.4039 0.362305Z" fill="url(#paint4_linear_508_15258)"/>
<path d="M22.4577 29.807C22.4516 29.807 22.4442 29.807 22.4381 29.807C22.3266 29.8009 22.2238 29.7435 22.1589 29.6519C15.8998 20.7108 16.2231 13.1589 17.5971 8.39777C19.0875 3.23256 22.0217 0.233048 22.1454 0.107305C22.2201 0.0328365 22.3242 -0.00744999 22.4283 -0.000125178C22.5336 0.00719964 22.6316 0.0596941 22.6953 0.143929C28.8833 8.33796 28.5649 15.9338 27.2092 20.8622C25.7421 26.1971 22.8545 29.5421 22.732 29.6825C22.6622 29.7618 22.563 29.807 22.4577 29.807ZM22.3769 0.935009C21.6029 1.8262 19.4537 4.56201 18.2878 8.63095C16.9885 13.1626 16.6824 20.3201 22.4809 28.8364C23.2574 27.8317 25.3674 24.8383 26.5161 20.6412C27.8007 15.9472 28.1069 8.7457 22.3769 0.933789V0.935009Z" fill="#B28E64"/>
<path d="M17.8848 20.0603C15.9156 17.5357 13.137 15.1283 9.25 13.7134C10.2799 18.8945 13.5276 25.0754 22.2494 29.5814C22.2494 29.5814 22.2714 29.4984 22.3057 29.3433L22.302 29.325C20.0291 26.0288 18.6429 22.9243 17.886 20.0616L17.8848 20.0603Z" fill="url(#paint5_linear_508_15258)"/>
<path d="M22.2507 29.9439C22.1931 29.9439 22.1355 29.9305 22.0829 29.9036C14.8025 26.1424 10.242 20.5682 8.8937 13.7842C8.86798 13.656 8.91452 13.5229 9.01371 13.4375C9.11413 13.352 9.25129 13.3276 9.37498 13.3715C12.8554 14.6387 15.8153 16.8142 18.1727 19.8369C18.2033 19.876 18.2241 19.9199 18.2376 19.9675C19.0409 23.0049 20.5092 26.0838 22.6021 29.1174C22.6278 29.1553 22.6474 29.1992 22.6572 29.2444C22.6683 29.2957 22.6732 29.3677 22.6621 29.4202C22.6254 29.585 22.6034 29.6717 22.6034 29.6717C22.5752 29.7779 22.5005 29.867 22.3988 29.9122C22.3511 29.9329 22.3009 29.9439 22.2507 29.9439ZM9.74849 14.2932C11.1507 20.3496 15.094 25.2109 21.4853 28.7598C19.6349 25.9299 18.3135 23.0635 17.553 20.2263C15.4307 17.5247 12.8076 15.5311 9.74726 14.2945L9.74849 14.2932Z" fill="#B28E64"/>
<path d="M27.2062 19.9554C29.1754 17.4307 31.954 15.0233 35.841 13.6084C34.8111 18.7895 31.5634 24.9704 22.8416 29.4764C22.8416 29.4764 22.8196 29.3934 22.7853 29.2383L22.789 29.22C25.0619 25.9239 26.4481 22.8194 27.2049 19.9566L27.2062 19.9554Z" fill="#E9DA97"/>
<path d="M22.8416 29.839C22.7914 29.839 22.7412 29.828 22.6934 29.8073C22.5918 29.7621 22.5171 29.6742 22.4889 29.5668C22.4889 29.5668 22.4657 29.4789 22.4301 29.3153C22.4191 29.2628 22.4191 29.2078 22.4301 29.1554C22.4412 29.1114 22.4632 29.0504 22.4889 29.0125C24.5818 25.9776 26.0501 22.9 26.8535 19.8626C26.8657 19.815 26.8878 19.771 26.9184 19.732C29.2758 16.7093 32.2357 14.5338 35.7161 13.2666C35.8398 13.2214 35.9781 13.2471 36.0773 13.3325C36.1765 13.418 36.2231 13.5498 36.1974 13.6792C34.849 20.4632 30.2885 26.0374 23.0082 29.7987C22.9555 29.8256 22.8979 29.839 22.8404 29.839H22.8416ZM27.5393 20.1202C26.7788 22.9573 25.4586 25.8238 23.607 28.6536C29.9983 25.1047 33.9428 20.2447 35.3438 14.1871C32.2835 15.4238 29.6603 17.4173 27.538 20.119L27.5393 20.1202Z" fill="#B28E64"/>
<path d="M22.3026 29.3237C22.0062 28.0248 20.8857 23.9058 17.8866 20.0603C18.6446 22.9231 20.0297 26.0276 22.3026 29.3237Z" fill="#E9DA97"/>
<path d="M22.3041 29.6862C22.1865 29.6862 22.0738 29.6301 22.004 29.5287C19.8634 26.4255 18.3608 23.2709 17.5354 20.1518C17.4913 19.9845 17.5709 19.8099 17.7264 19.7342C17.8807 19.6573 18.0693 19.7013 18.1759 19.8368C21.2435 23.7702 22.3837 28.0308 22.6604 29.2431C22.6996 29.4128 22.6114 29.5861 22.451 29.6557C22.4033 29.6765 22.3543 29.6862 22.3053 29.6862H22.3041ZM18.9633 22.2442C19.545 23.8105 20.2981 25.3829 21.219 26.948C20.7451 25.6246 20.025 23.9582 18.9633 22.2442Z" fill="#B28E64"/>
<path d="M22.625 29.4285C22.9214 28.1296 24.0419 24.0106 27.041 20.165C26.2829 23.0278 24.8979 26.1323 22.625 29.4285Z" fill="#E9DA97"/>
<path d="M22.6257 29.7912C22.5767 29.7912 22.5265 29.7815 22.48 29.7607C22.3195 29.6911 22.2326 29.5178 22.2706 29.3481C22.5461 28.1358 23.6862 23.8777 26.7551 19.9418C26.8617 19.8051 27.049 19.7623 27.2046 19.8392C27.3601 19.9162 27.4397 20.0907 27.3956 20.2568C26.5702 23.3759 25.0664 26.5305 22.927 29.6338C22.8572 29.7351 22.7433 29.7912 22.6269 29.7912H22.6257ZM25.9665 22.3492C24.906 24.0644 24.1846 25.7308 23.7107 27.0542C24.6316 25.4879 25.3848 23.9155 25.9665 22.3492Z" fill="#B28E64"/>
</g>
<defs>
<linearGradient id="paint0_linear_508_15258" x1="0.363464" y1="20.9772" x2="22.3908" y2="20.9772" gradientUnits="userSpaceOnUse">
<stop stop-color="#57C0C4"/>
<stop offset="1" stop-color="#C1E6F6"/>
</linearGradient>
<linearGradient id="paint1_linear_508_15258" x1="0.363464" y1="20.9772" x2="22.3908" y2="20.9772" gradientUnits="userSpaceOnUse">
<stop stop-color="#57C0C4"/>
<stop offset="1" stop-color="#C1E6F6"/>
</linearGradient>
<linearGradient id="paint2_linear_508_15258" x1="44.6377" y1="-0.000200684" x2="22.6104" y2="-0.000200684" gradientUnits="userSpaceOnUse">
<stop stop-color="#57C0C4"/>
<stop offset="1" stop-color="#C1E6F6"/>
</linearGradient>
<linearGradient id="paint3_linear_508_15258" x1="44.6377" y1="-0.000200684" x2="22.6104" y2="-0.000200684" gradientUnits="userSpaceOnUse">
<stop stop-color="#57C0C4"/>
<stop offset="1" stop-color="#C1E6F6"/>
</linearGradient>
<linearGradient id="paint4_linear_508_15258" x1="17.7773" y1="28.9657" x2="22.4691" y2="14.3527" gradientUnits="userSpaceOnUse">
<stop stop-color="#F2D034"/>
<stop offset="1" stop-color="#E9DA97"/>
</linearGradient>
<linearGradient id="paint5_linear_508_15258" x1="25.3073" y1="31.3528" x2="13.9797" y2="19.5098" gradientUnits="userSpaceOnUse">
<stop stop-color="#E9DA97"/>
<stop offset="1" stop-color="#E9DA97"/>
</linearGradient>
<clipPath id="clip0_508_15258">
<rect width="45" height="30" fill="white"/>
</clipPath>
</defs>
</svg>
