<svg width="42" height="49" viewBox="0 0 42 49" fill="none" xmlns="http://www.w3.org/2000/svg">
<g clip-path="url(#clip0_508_15200)">
<path d="M36.5882 33.196C36.5882 33.196 35.7991 32.8575 34.5559 33.6534C33.3127 34.4493 32.3745 36.1457 32.3745 36.1457C32.3745 36.1457 29.0218 37.2737 27.5771 38.2362L26.4687 41.6265L34.3557 37.7943L36.5882 33.196Z" fill="url(#paint0_linear_508_15200)"/>
<path d="M26.4701 42.0101C26.3785 42.0101 26.2882 41.9778 26.2162 41.9171C26.0984 41.8163 26.0526 41.6548 26.101 41.5088L27.2094 38.1186C27.2356 38.0372 27.2892 37.9661 27.3625 37.9183C28.6803 37.041 31.4506 36.0591 32.1128 35.8304C32.368 35.4014 33.2304 34.0474 34.3479 33.3316C35.7272 32.4479 36.6458 32.8006 36.7466 32.8445C36.8434 32.8859 36.9193 32.9647 36.956 33.0629C36.9926 33.1611 36.9874 33.2683 36.9416 33.3626L34.7091 37.9609C34.6711 38.0385 34.6083 38.1018 34.5298 38.1392L26.6428 41.9714C26.5878 41.9985 26.5289 42.0114 26.4714 42.0114L26.4701 42.0101ZM27.9069 38.4829L27.1231 40.8809L34.0653 37.5074L36.0059 33.5112C35.718 33.5319 35.298 33.6378 34.7706 33.975C33.6269 34.7076 32.7279 36.3136 32.7187 36.3291C32.6716 36.4131 32.5944 36.4777 32.5028 36.5087C32.4701 36.519 29.349 37.5746 27.9082 38.4829H27.9069Z" fill="#B28E64"/>
<path d="M39.6865 33.7234C39.6865 33.7234 38.5441 32.9275 37.3009 33.7234C36.0577 34.5192 34.6457 36.8087 34.6457 36.8087C34.6457 36.8087 31.6935 37.5671 30.2488 38.5297L29.4374 41.6267L37.5692 38.5684L39.6865 33.7246V33.7234Z" fill="url(#paint1_linear_508_15200)"/>
<path d="M29.4356 42.0102C29.3414 42.0102 29.2485 41.9766 29.1765 41.912C29.0679 41.8164 29.0234 41.6691 29.0587 41.5295L29.8701 38.4326C29.8936 38.3421 29.9499 38.262 30.0297 38.2103C31.3396 37.3382 33.7619 36.6483 34.3953 36.4764C34.7237 35.9635 35.9473 34.1301 37.0871 33.4001C38.5344 32.4725 39.8535 33.3704 39.9084 33.4079C40.0589 33.5125 40.1139 33.7076 40.0419 33.8743L37.9246 38.7181C37.8827 38.8137 37.8042 38.8873 37.706 38.9248L29.5743 41.983C29.5298 41.9998 29.4827 42.0076 29.4356 42.0076V42.0102ZM30.5859 38.7698L30.0009 41.0024L37.2755 38.2659L39.1848 33.8963C38.8328 33.7528 38.1915 33.6094 37.5098 34.0448C36.3542 34.7852 34.9894 36.9855 34.975 37.0075C34.9226 37.0927 34.8389 37.1547 34.7407 37.1793C34.7132 37.187 31.9979 37.8912 30.5846 38.7685L30.5859 38.7698Z" fill="#B28E64"/>
<path d="M29.0591 41.377C31.0757 39.7787 35.6624 38.2632 35.6624 38.2632C39.4325 32.2915 41.61 34.6132 41.61 34.6132C40.8536 36.736 38.065 40.7839 36.8545 41.5811C35.6454 42.377 35.8469 42.4442 31.1424 44.899C26.4379 47.3539 24.3546 47.288 23.75 47.288C23.1455 47.288 14.2744 44.7001 12.7956 44.7001C11.3169 44.7001 4.46237 48.2169 4.46237 48.2169C4.46237 48.2169 1.00108 43.5553 1.37142 40.4532C1.37142 40.4532 5.40326 38.8601 6.41221 38.1973C7.41984 37.5332 29.0617 41.377 29.0617 41.377H29.0591Z" fill="url(#paint2_linear_508_15200)"/>
<path d="M4.46147 48.6021C4.34108 48.6021 4.2233 48.5465 4.14741 48.4445C4.00215 48.2494 0.59975 43.6239 0.983175 40.4094C1.00019 40.2698 1.0931 40.1497 1.22527 40.098C1.26584 40.0825 5.23094 38.5127 6.19408 37.8783C6.45842 37.7039 6.95046 37.3796 18.1744 39.16C23.104 39.9417 27.9917 40.7996 28.9561 40.9688C30.8811 39.523 34.6381 38.2052 35.405 37.9442C37.0748 35.3317 38.6765 33.9376 40.1683 33.7968C41.261 33.6947 41.8682 34.3265 41.8944 34.3537C41.9925 34.4583 42.024 34.6082 41.9755 34.7426C41.2074 36.9015 38.3638 41.0502 37.0695 41.9017C36.834 42.0567 36.6521 42.1846 36.4767 42.3074C35.7478 42.8177 35.1184 43.2596 31.3221 45.2402C26.6451 47.6809 24.4951 47.6705 23.7923 47.6731H23.7465C23.4848 47.6731 22.5361 47.4302 20.0942 46.7855C17.371 46.0671 13.6427 45.0852 12.7921 45.0852C11.7766 45.0852 7.36005 47.1628 4.63814 48.5582C4.58056 48.5879 4.52036 48.6008 4.45886 48.6008L4.46147 48.6021ZM1.73694 40.722C1.59822 43.2182 3.89877 46.7338 4.58448 47.7222C6.04228 46.9832 11.3984 44.3164 12.7947 44.3164C13.678 44.3164 16.5871 45.0645 20.2983 46.0426C21.8791 46.4599 23.5136 46.8902 23.7557 46.9044H23.7976C24.4519 46.9044 26.4554 46.9108 30.9609 44.5594C34.7114 42.6019 35.3212 42.1743 36.0292 41.6794C36.2098 41.5528 36.3969 41.4223 36.6403 41.2621C37.6859 40.5735 40.2665 36.9416 41.1472 34.7438C40.9679 34.6392 40.6578 34.5177 40.2207 34.5643C39.3583 34.6573 37.9241 35.4092 35.9939 38.4675C35.9454 38.5437 35.8735 38.6005 35.7871 38.629C35.7413 38.6445 31.2423 40.1406 29.3042 41.6781C29.2165 41.7479 29.1027 41.7763 28.9915 41.757C20.9265 40.3254 7.75526 38.191 6.60498 38.5334C5.67587 39.1328 2.60193 40.3784 1.73694 40.7233V40.722Z" fill="#B28E64"/>
<path d="M4.29681 39.236C7.0292 38.1882 8.95025 35.6054 11.8802 34.9943C13.4126 34.6752 15.2538 34.5537 16.7993 34.8625C18.3566 35.1739 19.9086 35.8044 21.3873 36.369C22.6829 36.8639 23.9273 37.3949 25.2909 37.6753C27.1675 38.0603 29.0689 38.3497 30.9612 38.6546C31.2059 38.6947 31.4571 38.7631 31.6429 38.9246C32.3627 39.5539 31.889 40.873 31.1666 41.2865C30.0595 41.9196 29.0414 42.0475 27.7943 41.7826C26.3391 41.4725 24.8866 41.2348 23.4 41.1185C21.8794 40.9996 20.1638 40.9169 18.7191 41.4906L4.29943 39.236H4.29681Z" fill="url(#paint3_linear_508_15200)"/>
<mask id="mask0_508_15200" style="mask-type:luminance" maskUnits="userSpaceOnUse" x="4" y="34" width="29" height="8">
<path d="M4.29681 39.2365C7.0292 38.1887 8.95025 35.6059 11.8802 34.9948C13.4126 34.6757 15.2538 34.5542 16.7993 34.863C18.3566 35.1744 19.9086 35.8049 21.3873 36.3695C22.6829 36.8644 23.9273 37.3954 25.2909 37.6757C27.1675 38.0608 29.0689 38.3502 30.9612 38.6551C31.2059 38.6952 31.4571 38.7636 31.6429 38.9251C32.3627 39.5543 31.889 40.8735 31.1666 41.287C30.0595 41.92 29.0414 42.048 27.7943 41.7831C26.3391 41.473 24.8866 41.2353 23.4 41.119C21.8794 41.0001 20.1638 40.9174 18.7191 41.4911L4.29943 39.2365H4.29681Z" fill="white"/>
</mask>
<g mask="url(#mask0_508_15200)">
<path d="M32.3606 36.0646L31.3281 34.5542H32.3606V36.0646Z" fill="#EFE9DC"/>
<path d="M32.3601 37.8411L30.1132 34.5542H31.3276L32.3601 36.0646V37.8411Z" fill="#EEE8DA"/>
<path d="M32.3597 39.6176L28.8984 34.5542H30.1128L32.3597 37.8411V39.6176Z" fill="#EEE7D9"/>
<path d="M32.3631 41.1758L32.261 41.2443L27.6874 34.5542H28.9018L32.3631 39.6176V41.1758Z" fill="#EEE6D8"/>
<path d="M32.2606 41.2443L31.4257 41.7999L26.4726 34.5542H27.687L32.2606 41.2443Z" fill="#EEE6D7"/>
<path d="M31.4253 41.7999L31.0536 42.0479H30.381L25.2578 34.5542H26.4721L31.4253 41.7999Z" fill="#EDE5D6"/>
<path d="M29.1661 42.0479L24.0429 34.5542H25.2573L30.3805 42.0479H29.1661Z" fill="#EDE4D5"/>
<path d="M27.9514 42.0479L22.8281 34.5542H24.0425L29.1657 42.0479H27.9514Z" fill="#EDE3D4"/>
<path d="M26.7364 42.0479L21.6132 34.5542H22.8276L27.9508 42.0479H26.7364Z" fill="#ECE2D3"/>
<path d="M25.5216 42.0479L20.3984 34.5542H21.6128L26.736 42.0479H25.5216Z" fill="#ECE2D2"/>
<path d="M24.3068 42.0479L19.1835 34.5542H20.3979L25.5212 42.0479H24.3068Z" fill="#ECE1D1"/>
<path d="M23.0919 42.0479L17.9687 34.5542H19.1831L24.3063 42.0479H23.0919Z" fill="#EBE0D0"/>
<path d="M21.881 42.0479L16.7578 34.5542H17.9721L23.0954 42.0479H21.881Z" fill="#EBDFCF"/>
<path d="M20.6661 42.0479L15.5429 34.5542H16.7573L21.8805 42.0479H20.6661Z" fill="#EBDFCE"/>
<path d="M19.4513 42.0479L14.3281 34.5542H15.5425L20.6657 42.0479H19.4513Z" fill="#EADECD"/>
<path d="M18.2378 42.0479L13.1132 34.5542H14.3289L19.4522 42.0479H18.2378Z" fill="#EADDCC"/>
<path d="M4.29681 38.0892L9.60063 34.5542H13.1116L18.2362 42.0479H4.29681V38.0892Z" fill="#EADDCC"/>
</g>
<path d="M28.9321 42.2945C28.5422 42.2945 28.1378 42.248 27.7099 42.1576C26.1238 41.8204 24.7027 41.6046 23.3666 41.5012C21.829 41.3811 20.2154 41.31 18.8623 41.8462C18.6621 41.925 18.4357 41.8294 18.3559 41.633C18.2761 41.4366 18.3729 41.2118 18.5718 41.133C20.082 40.5335 21.7989 40.6072 23.4281 40.7338C24.7995 40.841 26.2534 41.0607 27.8748 41.4056C29.0512 41.6563 29.9764 41.5206 30.9696 40.9534C31.2889 40.7712 31.5611 40.3126 31.6043 39.8862C31.6253 39.6834 31.6043 39.403 31.3832 39.2105C31.2863 39.1265 31.1319 39.0697 30.8964 39.0309L30.0903 38.9017C28.4872 38.6459 26.8279 38.381 25.2091 38.0477C24.0301 37.8048 22.9256 37.3758 21.8564 36.9598C21.6536 36.881 21.4495 36.8022 21.244 36.7233L20.7703 36.5425C19.4473 36.0334 18.0785 35.5063 16.7188 35.2349C15.3762 34.9675 13.6423 35.0153 11.9581 35.3667C10.3995 35.6923 9.14456 36.6019 7.81632 37.5657C6.76943 38.3254 5.6872 39.111 4.43617 39.5903C4.23595 39.6679 4.01087 39.5684 3.93235 39.3707C3.85514 39.173 3.9546 38.9508 4.15481 38.8733C5.30901 38.4301 6.34936 37.6756 7.35569 36.9456C8.69309 35.9753 10.075 34.9726 11.7971 34.6135C13.5808 34.2414 15.4312 34.1936 16.8732 34.4817C18.2983 34.7659 19.6985 35.3047 21.053 35.8254L21.5241 36.0063C21.7308 36.0851 21.9363 36.1652 22.1404 36.244C23.2266 36.6665 24.2512 37.0644 25.3662 37.2944C26.9679 37.6239 28.6181 37.8875 30.2133 38.142L31.0194 38.2712C31.2628 38.3099 31.6187 38.39 31.8961 38.633C32.2599 38.9508 32.4301 39.4224 32.3751 39.9599C32.3057 40.6408 31.8961 41.3061 31.3557 41.6149C30.56 42.0697 29.7801 42.2907 28.9282 42.2907L28.9321 42.2945Z" fill="#B28E64"/>
<path d="M0.373362 40.0101L1.62832 39.4506C1.94763 39.3085 2.32189 39.4481 2.46584 39.7633L6.04883 47.6175C6.19801 47.9431 6.03967 48.3256 5.70204 48.456L4.39866 48.9574C4.08459 49.0788 3.72865 48.9341 3.59125 48.6305L0.0553687 40.8344C-0.0872703 40.5204 0.0553687 40.1509 0.372054 40.0101H0.373362Z" fill="#B28E64"/>
<mask id="mask1_508_15200" style="mask-type:alpha" maskUnits="userSpaceOnUse" x="7" y="0" width="39" height="38">
<rect x="7.86328" y="0.125" width="37.3289" height="36.7722" fill="#E9DA97" stroke="#B28E64" stroke-width="0.25"/>
</mask>
<g mask="url(#mask1_508_15200)">
<path d="M26.6862 4.75281L30.7075 12.6014H22.348L26.3693 4.75281H26.6862ZM25.2284 15.1653V30.6648L12.1179 15.1653H25.2284ZM40.9376 15.1653L27.8271 30.6648V15.1653H40.9376ZM41.3949 12.6014H33.5726L29.6272 4.75281H35.5702C36.1477 4.75281 36.6657 4.90087 37.1274 5.19592C37.5916 5.49258 37.962 5.88777 38.2391 6.38347L41.3949 12.6014ZM19.4829 12.6014H11.6606L14.8164 6.38345C15.0935 5.88776 15.4639 5.49257 15.9281 5.19592C16.3898 4.90087 16.9078 4.75281 17.4853 4.75281H23.4283L19.4829 12.6014Z" fill="#EDD671" stroke="#B28E64" stroke-width="0.25"/>
</g>
</g>
<defs>
<linearGradient id="paint0_linear_508_15200" x1="35.3699" y1="31.6611" x2="34.3771" y2="33.1303" gradientUnits="userSpaceOnUse">
<stop stop-color="#F3F3E9"/>
<stop offset="1" stop-color="#EADDCC"/>
</linearGradient>
<linearGradient id="paint1_linear_508_15200" x1="45.6041" y1="30.7013" x2="21.6046" y2="47.1098" gradientUnits="userSpaceOnUse">
<stop stop-color="#F3F3E9"/>
<stop offset="1" stop-color="#EADDCC"/>
</linearGradient>
<linearGradient id="paint2_linear_508_15200" x1="42.2277" y1="25.6233" x2="18.223" y2="42.0344" gradientUnits="userSpaceOnUse">
<stop stop-color="#F3F3E9"/>
<stop offset="1" stop-color="#EADDCC"/>
</linearGradient>
<linearGradient id="paint3_linear_508_15200" x1="41.434" y1="24.4656" x2="17.4332" y2="40.8741" gradientUnits="userSpaceOnUse">
<stop stop-color="#F3F3E9"/>
<stop offset="1" stop-color="#EADDCC"/>
</linearGradient>
<clipPath id="clip0_508_15200">
<rect width="42" height="49" fill="white"/>
</clipPath>
</defs>
</svg>
