<svg width="29" height="29" viewBox="0 0 29 29" fill="none" xmlns="http://www.w3.org/2000/svg">
<mask id="mask0_508_15176" style="mask-type:alpha" maskUnits="userSpaceOnUse" x="0" y="0" width="29" height="29">
<rect width="29" height="29" fill="#D9D9D9"/>
</mask>
<g mask="url(#mask0_508_15176)">
<path d="M7.05972 23.6321C6.11658 23.6321 5.31581 23.3023 4.65743 22.6426C3.99905 21.983 3.66986 21.1819 3.66986 20.2395H1.625V7.6218C1.625 7.01143 1.83646 6.49479 2.25938 6.07187C2.68229 5.64896 3.19892 5.4375 3.80927 5.4375H20.2612V10.0385H23.4679L27.3717 15.2668V20.2395H25.1875C25.1875 21.1819 24.8574 21.983 24.1972 22.6426C23.5369 23.3023 22.7353 23.6321 21.7921 23.6321C20.849 23.6321 20.0482 23.3023 19.3898 22.6426C18.7314 21.983 18.4022 21.1819 18.4022 20.2395H10.4551C10.4551 21.1845 10.125 21.9862 9.46476 22.6446C8.80456 23.3029 8.00289 23.6321 7.05972 23.6321ZM7.06247 21.8197C7.50553 21.8197 7.87965 21.6671 8.18483 21.3619C8.49002 21.0567 8.64261 20.6826 8.64261 20.2395C8.64261 19.7965 8.49002 19.4223 8.18483 19.1172C7.87965 18.812 7.50553 18.6594 7.06247 18.6594C6.61939 18.6594 6.24526 18.812 5.94008 19.1172C5.63489 19.4223 5.4823 19.7965 5.4823 20.2395C5.4823 20.6826 5.63489 21.0567 5.94008 21.3619C6.24526 21.6671 6.61939 21.8197 7.06247 21.8197ZM3.43747 18.4271H4.31119C4.56832 17.9794 4.93972 17.6041 5.42539 17.3012C5.91106 16.9984 6.45675 16.8469 7.06247 16.8469C7.6527 16.8469 8.19452 16.9964 8.68792 17.2954C9.18132 17.5944 9.5566 17.9716 9.81375 18.4271H18.4487V7.24997H3.80927C3.71633 7.24997 3.63113 7.2887 3.55365 7.36615C3.4762 7.44363 3.43747 7.52884 3.43747 7.6218V18.4271ZM21.7949 21.8197C22.2379 21.8197 22.612 21.6671 22.9172 21.3619C23.2224 21.0567 23.375 20.6826 23.375 20.2395C23.375 19.7965 23.2224 19.4223 22.9172 19.1172C22.612 18.812 22.2379 18.6594 21.7949 18.6594C21.3518 18.6594 20.9777 18.812 20.6725 19.1172C20.3673 19.4223 20.2147 19.7965 20.2147 20.2395C20.2147 20.6826 20.3673 21.0567 20.6725 21.3619C20.9777 21.6671 21.3518 21.8197 21.7949 21.8197ZM20.2612 16.0104H25.6755L22.5384 11.8509H20.2612V16.0104Z" fill="#1C1B1F"/>
</g>
</svg>
