<svg width="19" height="23" viewBox="0 0 19 23" fill="none" xmlns="http://www.w3.org/2000/svg">
<path d="M6.55819 15.2458L9.5 13.0104L12.3814 15.2226L11.2753 11.6487L14.2636 9.31575H10.6665L9.5 5.71867L8.33351 9.31575H4.73642L7.66427 11.6487L6.55819 15.2458ZM9.5 22.9559C6.8866 22.2433 4.72283 20.705 3.00871 18.341C1.29459 15.977 0.437531 13.3342 0.437531 10.4125V3.45999L9.5 0.0673828L18.5625 3.45999V10.4125C18.5625 13.3342 17.7054 15.977 15.9913 18.341C14.2772 20.705 12.1134 22.2433 9.5 22.9559ZM9.5 21.0459C11.5944 20.3813 13.3264 19.0521 14.6958 17.0584C16.0653 15.0646 16.75 12.8493 16.75 10.4125V4.70315L9.5 1.99603L2.25 4.70315V10.4125C2.25 12.8493 2.93472 15.0646 4.30417 17.0584C5.67361 19.0521 7.40555 20.3813 9.5 21.0459Z" fill="#1C1B1F"/>
</svg>
