<svg width="14" height="16" viewBox="0 0 14 16" fill="none" xmlns="http://www.w3.org/2000/svg">
<path d="M5.18283 10.5834L7.26458 9.04171L9.30359 10.5673L8.52088 8.10262L10.6355 6.49367H8.09005L7.26458 4.01292L6.43912 6.49367H3.89365L5.96554 8.10262L5.18283 10.5834ZM7.26458 15.9007C5.41522 15.4092 3.88404 14.3483 2.67105 12.718C1.45806 11.0877 0.851562 9.26501 0.851562 7.25006V2.45521L7.26458 0.115479L13.6776 2.45521V7.25006C13.6776 9.26501 13.0711 11.0877 11.8581 12.718C10.6451 14.3483 9.11395 15.4092 7.26458 15.9007ZM7.26458 14.5834C8.74671 14.1251 9.97231 13.2084 10.9414 11.8334C11.9105 10.4584 12.395 8.93062 12.395 7.25006V3.31256L7.26458 1.44558L2.13415 3.31256V7.25006C2.13415 8.93062 2.61869 10.4584 3.58777 11.8334C4.55686 13.2084 5.78246 14.1251 7.26458 14.5834Z" fill="#977058"/>
</svg>
