<svg width="15" height="15" viewBox="0 0 15 15" fill="none" xmlns="http://www.w3.org/2000/svg">
<path d="M7.64646 14.7594C7.54004 14.6471 7.48587 14.5226 7.48396 14.3859C7.48204 14.2493 7.53428 14.1248 7.64068 14.0124L13.3099 8.02825H1.26953C1.12723 8.02825 1.00832 7.97783 0.912806 7.87701C0.81729 7.77621 0.769531 7.65069 0.769531 7.50047C0.769531 7.35024 0.81729 7.22473 0.912806 7.12393C1.00832 7.0231 1.12723 6.97269 1.26953 6.97269H13.3099L7.64068 0.988508C7.53428 0.876179 7.48204 0.751676 7.48396 0.615C7.48587 0.478323 7.54004 0.35382 7.64646 0.241491C7.75287 0.129163 7.87082 0.072998 8.00031 0.072998C8.12979 0.072998 8.24774 0.129163 8.35416 0.241491L14.6657 6.90368C14.7529 6.99165 14.8141 7.08468 14.8494 7.1828C14.8846 7.28089 14.9022 7.38678 14.9022 7.50047C14.9022 7.6006 14.8846 7.7021 14.8494 7.80494C14.8141 7.90781 14.7529 8.00524 14.6657 8.09725L8.35416 14.7594C8.24774 14.8718 8.12979 14.9279 8.00031 14.9279C7.87082 14.9279 7.75287 14.8718 7.64646 14.7594Z" fill="white"/>
</svg>
