<svg width="22" height="21" viewBox="0 0 22 21" fill="none" xmlns="http://www.w3.org/2000/svg">
<path d="M19.9195 20.7501L12.5349 13.3655C11.9099 13.8976 11.1911 14.3094 10.3786 14.6011C9.56612 14.8928 8.74961 15.0386 7.92909 15.0386C5.92701 15.0386 4.23258 14.3456 2.84581 12.9596C1.45902 11.5736 0.765625 9.88004 0.765625 7.87905C0.765625 5.87805 1.45864 4.18323 2.84466 2.79461C4.23068 1.40598 5.92419 0.71167 7.92519 0.71167C9.92621 0.71167 11.621 1.40506 13.0096 2.79183C14.3982 4.1786 15.0926 5.87303 15.0926 7.87514C15.0926 8.74372 14.9387 9.58426 14.631 10.3968C14.3233 11.2093 13.9195 11.904 13.4195 12.4809L20.8354 19.8968C20.9524 20.0071 21.0108 20.1424 21.0108 20.3028C21.0108 20.4632 20.9402 20.6141 20.7989 20.7554C20.6694 20.8849 20.5237 20.9497 20.3618 20.9497C20.1999 20.9497 20.0525 20.8832 19.9195 20.7501ZM7.92909 13.7886C9.58776 13.7886 10.988 13.2177 12.1298 12.0759C13.2716 10.934 13.8426 9.53378 13.8426 7.87514C13.8426 6.21649 13.2716 4.81625 12.1298 3.67442C10.988 2.53259 9.58776 1.96167 7.92909 1.96167C6.27045 1.96167 4.87021 2.53259 3.72837 3.67442C2.58656 4.81625 2.01566 6.21649 2.01566 7.87514C2.01566 9.53378 2.58656 10.934 3.72837 12.0759C4.87021 13.2177 6.27045 13.7886 7.92909 13.7886Z" fill="#1C1B1F"/>
</svg>
