<svg width="22" height="21" viewBox="0 0 22 21" fill="none" xmlns="http://www.w3.org/2000/svg">
<path d="M19.9117 20.7499L12.5271 13.3653C11.9021 13.8973 11.1833 14.3092 10.3708 14.6009C9.55831 14.8925 8.7418 15.0384 7.92128 15.0384C5.9192 15.0384 4.22477 14.3454 2.838 12.9593C1.45121 11.5733 0.757812 9.8798 0.757812 7.8788C0.757812 5.8778 1.45082 4.18299 2.83684 2.79436C4.22286 1.40574 5.91637 0.711426 7.91737 0.711426C9.9184 0.711426 11.6132 1.40481 13.0018 2.79158C14.3904 4.17835 15.0847 5.87279 15.0847 7.8749C15.0847 8.74348 14.9309 9.58402 14.6232 10.3965C14.3155 11.209 13.9117 11.9037 13.4117 12.4807L20.8276 19.8965C20.9445 20.0068 21.003 20.1422 21.003 20.3026C21.003 20.463 20.9324 20.6138 20.7911 20.7551C20.6615 20.8847 20.5159 20.9494 20.354 20.9494C20.1921 20.9494 20.0447 20.8829 19.9117 20.7499ZM7.92128 13.7884C9.57995 13.7884 10.9802 13.2174 12.122 12.0756C13.2638 10.9338 13.8347 9.53354 13.8347 7.8749C13.8347 6.21625 13.2638 4.81601 12.122 3.67418C10.9802 2.53234 9.57995 1.96143 7.92128 1.96143C6.26263 1.96143 4.8624 2.53234 3.72056 3.67418C2.57875 4.81601 2.00784 6.21625 2.00784 7.8749C2.00784 9.53354 2.57875 10.9338 3.72056 12.0756C4.8624 13.2174 6.26263 13.7884 7.92128 13.7884Z" fill="#1C1B1F"/>
<path d="M19.9117 20.7499L12.5271 13.3653C11.9021 13.8973 11.1833 14.3092 10.3708 14.6009C9.55831 14.8925 8.7418 15.0384 7.92128 15.0384C5.9192 15.0384 4.22477 14.3454 2.838 12.9593C1.45121 11.5733 0.757812 9.8798 0.757812 7.8788C0.757812 5.8778 1.45082 4.18299 2.83684 2.79436C4.22286 1.40574 5.91637 0.711426 7.91737 0.711426C9.9184 0.711426 11.6132 1.40481 13.0018 2.79158C14.3904 4.17835 15.0847 5.87279 15.0847 7.8749C15.0847 8.74348 14.9309 9.58402 14.6232 10.3965C14.3155 11.209 13.9117 11.9037 13.4117 12.4807L20.8276 19.8965C20.9445 20.0068 21.003 20.1422 21.003 20.3026C21.003 20.463 20.9324 20.6138 20.7911 20.7551C20.6615 20.8847 20.5159 20.9494 20.354 20.9494C20.1921 20.9494 20.0447 20.8829 19.9117 20.7499ZM7.92128 13.7884C9.57995 13.7884 10.9802 13.2174 12.122 12.0756C13.2638 10.9338 13.8347 9.53354 13.8347 7.8749C13.8347 6.21625 13.2638 4.81601 12.122 3.67418C10.9802 2.53234 9.57995 1.96143 7.92128 1.96143C6.26263 1.96143 4.8624 2.53234 3.72056 3.67418C2.57875 4.81601 2.00784 6.21625 2.00784 7.8749C2.00784 9.53354 2.57875 10.9338 3.72056 12.0756C4.8624 13.2174 6.26263 13.7884 7.92128 13.7884Z" stroke="black"/>
</svg>
