<svg width="18" height="24" viewBox="0 0 18 24" fill="none" xmlns="http://www.w3.org/2000/svg">
<path d="M2.26922 23.25C1.69391 23.25 1.21354 23.0573 0.828125 22.6719C0.442708 22.2865 0.25 21.8061 0.25 21.2308V7.76922C0.25 7.19391 0.442708 6.71354 0.828125 6.32812C1.21354 5.94271 1.69391 5.75 2.26922 5.75H4.625V5.125C4.625 3.91025 5.05048 2.8774 5.90144 2.02644C6.7524 1.17548 7.78525 0.75 9 0.75C10.2148 0.75 11.2476 1.17548 12.0986 2.02644C12.9495 2.8774 13.375 3.91025 13.375 5.125V5.75H15.7308C16.3061 5.75 16.7865 5.94271 17.1719 6.32812C17.5573 6.71354 17.75 7.19391 17.75 7.76922V21.2308C17.75 21.8061 17.5573 22.2865 17.1719 22.6719C16.7865 23.0573 16.3061 23.25 15.7308 23.25H2.26922ZM2.26922 22H15.7308C15.9231 22 16.0994 21.9199 16.2596 21.7596C16.4199 21.5994 16.5 21.4231 16.5 21.2308V7.76922C16.5 7.57693 16.4199 7.40065 16.2596 7.24037C16.0994 7.08012 15.9231 7 15.7308 7H13.375V10.125C13.375 10.3029 13.3153 10.4515 13.1959 10.5709C13.0765 10.6903 12.9279 10.75 12.75 10.75C12.5721 10.75 12.4235 10.6903 12.3041 10.5709C12.1847 10.4515 12.125 10.3029 12.125 10.125V7H5.875V10.125C5.875 10.3029 5.8153 10.4515 5.69591 10.5709C5.57653 10.6903 5.4279 10.75 5.25 10.75C5.0721 10.75 4.92347 10.6903 4.80409 10.5709C4.6847 10.4515 4.625 10.3029 4.625 10.125V7H2.26922C2.07693 7 1.90065 7.08012 1.74038 7.24037C1.58013 7.40065 1.5 7.57693 1.5 7.76922V21.2308C1.5 21.4231 1.58013 21.5994 1.74038 21.7596C1.90065 21.9199 2.07693 22 2.26922 22ZM5.875 5.75H12.125V5.125C12.125 4.24519 11.8241 3.50441 11.2223 2.90266C10.6206 2.30089 9.87981 2 9 2C8.12019 2 7.37941 2.30089 6.77766 2.90266C6.17589 3.50441 5.875 4.24519 5.875 5.125V5.75Z" fill="#1C1B1F"/>
</svg>
