<svg width="44" height="44" viewBox="0 0 44 44" fill="none" xmlns="http://www.w3.org/2000/svg">
<path d="M35.2008 19.8734V14.6668C32.7625 14.6668 30.9016 14.0159 29.7008 12.7509C28.4683 11.3072 27.7778 9.47894 27.7483 7.58094V7.2051L22.8258 7.08594V28.2334C22.6569 29.1561 22.209 30.0048 21.5426 30.6648C20.8761 31.3249 20.0232 31.7646 19.0989 31.9246C18.1747 32.0845 17.2236 31.957 16.3741 31.5593C15.5245 31.1616 14.8175 30.5129 14.3484 29.7006C13.8793 28.8883 13.6707 27.9517 13.7507 27.0171C13.8308 26.0825 14.1957 25.195 14.7961 24.4744C15.3966 23.7537 16.2037 23.2347 17.1085 22.9873C18.0133 22.7399 18.9722 22.7761 19.8558 23.0909V18.0493C19.3406 17.9649 18.8195 17.9219 18.2975 17.9209C16.4192 17.9209 14.5831 18.4779 13.0214 19.5214C11.4597 20.5649 10.2425 22.0481 9.52368 23.7834C8.8049 25.5187 8.61683 27.4281 8.98326 29.2703C9.34969 31.1125 10.2542 32.8046 11.5823 34.1328C12.9104 35.4609 14.6026 36.3654 16.4447 36.7318C18.2869 37.0982 20.1964 36.9102 21.9317 36.1914C23.667 35.4726 25.1501 34.2554 26.1936 32.6937C27.2372 31.132 27.7941 29.2959 27.7941 27.4176C27.7931 27.0284 27.7686 26.6397 27.7208 26.2534V17.8659C29.9591 19.2638 32.5633 19.9627 35.2008 19.8734Z" fill="#232323"/>
</svg>
