<svg width="30" height="30" viewBox="0 0 30 30" fill="none" xmlns="http://www.w3.org/2000/svg">
<mask id="mask0_508_14920" style="mask-type:alpha" maskUnits="userSpaceOnUse" x="0" y="0" width="30" height="30">
<rect x="0.59375" y="0.34668" width="29.1837" height="29.1837" fill="#977058"/>
</mask>
<g mask="url(#mask0_508_14920)">
<path d="M9.48744 25.805C9.2458 25.5633 9.12499 25.2757 9.12499 24.9421C9.12499 24.6085 9.2458 24.3209 9.48744 24.0792L18.6284 14.9383L9.45704 5.76691C9.22787 5.53776 9.11328 5.25715 9.11328 4.92508C9.11328 4.59304 9.238 4.3023 9.48744 4.05288C9.72908 3.81125 10.0167 3.69043 10.3503 3.69043C10.6839 3.69043 10.9715 3.81125 11.2132 4.05288L21.3105 14.1689C21.4243 14.2827 21.5046 14.4028 21.5514 14.5291C21.5981 14.6553 21.6215 14.7917 21.6215 14.9383C21.6215 15.0848 21.5981 15.2212 21.5514 15.3475C21.5046 15.4738 21.4243 15.5938 21.3105 15.7076L11.1828 25.8354C10.9536 26.0645 10.6761 26.1791 10.3503 26.1791C10.0245 26.1791 9.73686 26.0544 9.48744 25.805Z" fill="white"/>
</g>
</svg>
