<svg width="13" height="24" viewBox="0 0 13 24" fill="none" xmlns="http://www.w3.org/2000/svg">
<path d="M12.5126 22.805C12.7542 22.5633 12.875 22.2757 12.875 21.9421C12.875 21.6085 12.7542 21.3209 12.5126 21.0792L3.37159 11.9383L12.543 2.76691C12.7721 2.53776 12.8867 2.25715 12.8867 1.92508C12.8867 1.59304 12.762 1.3023 12.5126 1.05288C12.2709 0.811248 11.9833 0.69043 11.6497 0.69043C11.3161 0.69043 11.0285 0.811248 10.7868 1.05288L0.689463 11.1689C0.575667 11.2827 0.495382 11.4028 0.448607 11.5291C0.401853 11.6553 0.378475 11.7917 0.378475 11.9383C0.378475 12.0848 0.401853 12.2212 0.448607 12.3475C0.495382 12.4738 0.575667 12.5938 0.689463 12.7076L10.8172 22.8354C11.0464 23.0645 11.3239 23.1791 11.6497 23.1791C11.9755 23.1791 12.2631 23.0544 12.5126 22.805Z" fill="white"/>
</svg>
